<svg width="1920" height="1248" viewBox="0 0 1920 1248" fill="none" xmlns="http://www.w3.org/2000/svg">
<rect width="1920" height="1248" fill="#F1F6F8"/>
<g opacity="0.9">
<path d="M134.1 659.8L130.5 664.1C78.2 724 12.9 798.6 8.29999 900.6C7.79999 910.8 4.39999 917.2 -1.22041e-05 920.5V919.1C3.69999 915.9 6.39999 909.9 6.89999 901C11.9 798.3 77.1 723.8 129.5 663.8L133.2 659.5C139.5 653.2 153.1 636.3 152.1 616.1C151.4 603.8 145.1 592.6 133.9 583C126.9 577.4 120.3 571.7 114.4 566.4C87.6 543.2 66 524.7 32.9 501.8C21.8 494.1 10.9 486.6 0.0999878 479.8V478.5C11 485.7 22.1 493.1 33.5 500.8C66.6 523.7 87.8 542.2 115 565.4C121.3 570.4 127.6 576 134.5 582C146.1 591.9 152.4 603.2 153.1 615.8C154.3 636.3 140.1 653.5 134.1 659.8Z" fill="white"/>
<path d="M176.9 643.5C170.6 652.5 162.3 663 151.7 675L148.1 679.3C98.1 736.3 35.8 807.5 31.5 901.6C29.5 945.6 21.6 971.5 6.69999 982.4C4.29999 984.3 2.09999 985.4 0.0999878 985.9V984.9C1.99999 984.4 3.89999 983.4 6.09999 981.7C20.7 970.8 28.6 945.3 30.6 901.5C34.8 807.2 97 736 147.4 679L151 674.7C161.6 662.8 169.9 652.2 176.2 643.2C183.8 632.3 197.7 612.1 164.3 579.6C127.5 544.2 87.8 511.4 46 482.5C29.9 471.5 14.8 461.7 -1.22041e-05 452.5V451.1C14.9 460 30.6 470.2 46.7 481.5C88.4 510.3 128.2 543.1 165 578.6C199.1 611.8 184.5 632.3 176.9 643.5Z" fill="white"/>
<path d="M360.7 317.9C283.5 373.6 219 399.4 157 399.4C121.6 399.4 86.8 390.4 53 373.2C33.7 363.4 16.5 351.5 -1.22041e-05 339.2V336.2C16.8 348.8 34.3 361.1 54 371.2C87.1 388.4 121.9 397 156.7 397C218.3 397 282.6 371.2 359.1 315.8C413.8 276 437.9 247.9 433.3 229.3C427.3 205.5 373.7 198.2 316.7 190.9C302.1 188.9 286.6 186.9 271.7 184.6C205.4 174 144.8 140.9 86.2 108.7C58 93.4 29.3 77.6 -1.22041e-05 64.6V62C29.7 75.4 58.7 91.2 87.1 107C145.7 139 206 172.2 272 182.4C286.9 184.7 302.1 186.7 317 188.7C377.3 196.7 429.3 203.3 435.6 228.8C440.6 248.7 417 276.8 360.7 317.9Z" fill="white"/>
<path d="M79.8 642.2C70.8 667.4 54.3 687.9 38.1 707.8C26.8 721.7 15.2 736 6.29999 751.5C4.19999 755.5 2.09999 760 -1.22041e-05 765V762.4C1.69999 758.3 3.49999 754.3 5.29999 751.2C14.2 735.6 25.8 721.4 37.1 707.5C53.3 688 69.9 667.4 78.8 642.2C94.4 598.5 63.6 577.9 31.1 556.4C27.8 554.4 24.8 552.4 21.8 550.4C16.5 546.8 11.2 543.4 6.19999 539.8C4.39999 538.5 2.39999 537 -0.100012 535.2V533.9C2.59999 535.9 4.99999 537.5 6.79999 538.8C11.8 542.1 17.1 545.8 22.4 549.4C25.7 551.4 28.7 553.4 31.7 555.4C64.6 577.3 95.7 597.8 79.8 642.2Z" fill="white"/>
<path d="M539.3 154C533 142.4 524.7 135.5 516.8 135.5C511.2 135.5 502.9 139.1 497.3 156.4C490.7 175.9 503.6 180.2 517.2 185.2C519.5 186.2 522.2 186.9 524.5 187.8C529.8 189.8 534.4 191.1 537.7 191.1C541.7 191.1 544.3 189.8 546 187.1C550.9 179.1 542.9 161.2 539.3 154ZM544.6 186.4C541.9 190.7 535.3 190.7 525.1 186.4C522.8 185.4 520.1 184.4 517.8 183.8C504.6 179.2 493 175.2 499.3 157C503.6 144.1 509.9 137.1 517.5 137.1C524.8 137.1 532.4 143.7 538.4 155C545.2 169.5 547.5 181.1 544.6 186.4Z" fill="white"/>
<path d="M91.7 673.4C90.1 675.1 88.4 677 87.1 678.7C68.6 700.9 45 730.4 26.5 763.5C15.8 782.2 6.99999 801.7 -1.22041e-05 821.8V818.5C6.69999 799.3 15.4 780.5 25.5 762.8C44.4 730 67.9 700.5 86.5 678.3C88.2 676.6 89.5 674.6 91.1 673C112 648.2 133.8 622.6 109.3 592.2C90.1 568.3 60.9 548.8 35.1 531.2C29.8 527.5 24.8 523.9 19.9 520.6C16.3 518.3 11.9 515 6.69999 511C4.49999 509.5 2.29999 508.1 0.0999878 506.5V505C2.59999 506.8 4.99999 508.4 6.99999 509.7C12.3 513.7 16.9 517 20.2 519.3C25.2 522.9 30.1 526.3 35.4 529.9C61.2 547.5 90.4 567.3 109.9 591.2C135.1 622.3 112.9 648.2 91.7 673.4Z" fill="white"/>
<path d="M388.5 235.4C388.2 241 379.9 244.3 370 248.3C363.7 250.6 357.4 252.9 353.1 256.3C335.9 268.6 332.9 277.2 328.9 288.1C326.3 295.4 323.3 303.7 315.3 314.3C303.7 329.9 293.1 333.2 279.5 333.2C276.8 333.2 274.2 332.9 271.5 332.9C268.5 332.6 265.5 332.6 262.2 332.6C257.6 332.6 250.3 332.9 242 334.9C225.8 338.9 211.2 343.8 198.6 348.1C176.4 355.7 157.2 362.3 135.3 362.3C114.8 362.3 93.2 356.3 68.1 343.4C45.2 331.8 24.7 316.2 4.49999 300.7C2.99999 299.5 1.39999 298.3 -0.100012 297.2V295.1C1.79999 296.5 3.69999 298 5.49999 299.4C25.4 314.6 45.9 330.2 68.8 341.8C93.6 354.7 114.8 360.7 135.4 360.7C156.9 360.7 176.1 354.4 198.3 346.8C210.9 342.5 225.5 337.5 241.7 333.6C250 331.6 257.6 331.3 262.2 331.3C265.5 331.3 268.5 331.6 271.5 331.6C274.2 331.9 276.8 331.9 279.5 331.9C292.4 331.9 302.7 328.9 314 313.7C321.6 303.1 324.6 295.2 327.2 287.9C331.2 277.3 334.5 268 352 255.4C356.6 252.1 362.9 249.4 369.2 247.1C378.1 243.8 386.4 240.5 386.7 235.8C387 231.8 381.7 227.2 370.8 221.2C357.2 213.6 337.3 212.6 319.8 212.6C311.9 212.6 303.6 212.6 295.6 212.9C287.6 212.9 279 213.2 271.1 213.2C252.9 213.2 240.3 211.9 230 209.2C172.4 193.6 118 163.8 70.3 137.6C46.3 124.5 22.9 111.6 -0.200012 100.6V98.6C23.2 109.9 47 122.7 71 135.9C118.7 162.1 172.7 191.9 230.3 207.1C240.2 209.7 252.8 211.1 270.7 211.1C278.7 211.1 287.3 211.1 295.2 210.8C303.2 210.8 311.4 210.5 319.4 210.5C337.3 210.5 357.5 211.5 371.4 219.1C383.6 225.8 388.9 230.8 388.5 235.4Z" fill="white"/>
<path d="M277.6 276.2C277.6 294.7 250.1 308.7 227.2 316.9C201 326.5 170.9 332.1 157 332.1C131.8 332.1 108 326.1 83.5 313.6C63.3 303.3 44.1 288.4 25.2 274.2C17 268.1 8.79999 261.7 -1.22041e-05 255.6V254.3C9.09999 260.7 17.6 267.1 25.8 273.5C44.7 287.4 63.9 302.3 84.1 312.6C108.3 325.2 132.1 331.2 157 331.2C186.2 331.2 276.9 308.3 276.9 276.2C276.9 255 235.2 243.1 210 235.8C204.4 234.5 199.7 233.1 196.4 231.8C151 215.2 106 194.4 54.6 166.5C36.2 156.4 17.8 146.2 -1.22041e-05 137.2V136.2C18.1 145.2 36.2 155.4 55 165.5C106 193.7 151.1 214.2 196.5 230.8C199.8 231.8 204.5 233.1 210.1 234.8C235.2 242.1 277.6 254.3 277.6 276.2Z" fill="white"/>
<path d="M208.7 291.8C199.4 304 175.2 309.3 157 309.3C135.8 309.3 115.3 304 94.1 293.1C75.5 283.5 57 269.6 38.7 256C26.9 247 13.9 237.4 -1.22041e-05 228V226.6C14.2 236 27.2 245.6 39.4 255C57.3 268.6 75.8 282.5 94.4 292.1C115.3 302.7 135.8 308 156.7 308C174.9 308 198.8 302.7 207.7 291.1C211.7 286.1 212.7 280.5 211 273.9C207 258.3 172.2 246.4 149.4 238.8C141.4 236.1 134.5 233.8 130.2 231.8C101.7 218.6 73.6 203.3 46.4 188.1L43.4 186.4C28.6 178.6 14.2 170.4 -1.22041e-05 163.1V162.1C14.5 169.7 29 177.6 44.4 185.7L47.4 187.4C74.6 202.3 102.4 217.5 130.9 230.8C134.9 232.8 141.8 235.1 149.8 237.8C174.3 246.1 207.8 257.7 212.1 273.6C214 280.5 212.7 286.5 208.7 291.8Z" fill="white"/>
<path d="M650.9 240.7C650.2 246 646.6 250.6 639.3 254.9C636 256.9 630.3 257.9 622.7 257.9C597.2 257.9 552.1 246.6 518.7 235.4C482.3 223.1 437.2 203.6 430.2 179.7C427.9 171.8 429.9 163.8 435.8 156.2C443.4 146.6 451.4 138.3 459 130.4C473.9 114.8 488.2 99.9 497.4 78.4C508.3 52.9 511.3 26.7 506.4 -2.44156e-05H507.8C512.6 26.8 509.4 53.1 498.4 78.8C489.1 100.7 474.9 115.6 459.6 131.1C452 139 444 147.3 436.7 156.6C431.1 163.9 429.1 171.5 431.4 178.8C438.4 202 482.8 221.2 519.5 233.5C552.6 244.4 597.4 255.7 622.9 255.7C630.2 255.7 635.5 255 638.5 253C645.1 249 648.4 244.7 649.1 240.1C650.4 229.8 637.2 217.2 622.3 203C605.4 187.1 586.2 168.6 578.6 146.4C561.1 95 566.2 41.9 574 -2.44156e-05H575.5C567.6 41.9 562.2 94.9 580 146.3C587.6 168.2 606.5 186.4 623.4 202.3C639 216.9 652.2 229.5 650.9 240.7Z" fill="white"/>
<path d="M345.5 708.5C342.9 705.2 339.2 703.5 334.9 703.5C325.6 704.2 317.3 718.1 311 728.3C309.3 731 307.7 733.6 306.4 735.6C289.5 759.1 270 780.3 247.4 803.2C244.4 806.2 241.4 809.5 238.1 812.5C219.6 831 200.7 850.3 189.1 873.1C184.8 882 183.5 888.7 185.1 893C186.1 895 187.4 896.3 189.4 896.7C190.4 897 191.1 897 192 897C196 897 201.6 895 207.6 891.4C219.9 884.1 231.5 874.8 242.7 865.9C252 858.6 261.6 851 271.2 844.7C311 818.5 337.1 801 349.4 751.9C352.1 741.6 353.4 718.4 345.5 708.5ZM349.1 751.9C336.8 800.6 311 817.8 271.3 844C261.4 850.6 251.8 857.9 242.8 865.2C231.5 874.1 220 883.1 207.7 890.7C200.4 895.3 193.8 897 190.1 896C188.4 895.3 187.1 894.3 186.5 892.7C184.8 888.7 186.2 882.1 190.5 873.5C201.8 851 221 831.8 239.2 813.2C242.2 809.9 245.5 806.9 248.5 803.9C270.7 781 290.6 759.8 307.5 736.3C308.8 734.3 310.5 731.7 312.1 729C318.1 719.1 326.3 705.5 335.9 705.1C336.2 704.8 336.2 704.8 336.6 704.8C340.3 704.8 343.2 706.4 345.6 709.4C353.1 719.4 351.8 741.9 349.1 751.9Z" fill="white"/>
<path d="M154.3 279.5C152 281.2 148.3 281.8 143.4 281.8C129.8 281.8 111.3 275.8 104.6 272.5C87.7 264.2 70.2 250.6 52.9 238.1C37.7 226.3 19.9 213 -1.22041e-05 200.8V198.8C20.5 211 38.3 224.7 54 236.5C71.2 249.4 88.8 262.7 105.3 271.3C111.6 274.6 130.1 280.6 143.1 280.6C147.4 280.6 151 279.9 153 278.6C157.6 275.6 159.6 272.6 159.3 270.3C158.6 264.3 143.4 260 132.1 257.1C127.1 255.5 122.8 254.5 120.2 253.1C91.1 239.9 62.6 224.3 35.1 209L32.1 207.3C21.3 201.4 10.5 195.6 -1.22041e-05 190V188C10.8 193.6 21.7 199.8 32.8 206L35.8 207.7C63.3 222.6 91.8 238.2 120.9 251.7C123.5 252.7 127.9 254 132.8 255.4C145 258.7 160.3 263 161.3 270C162 272.9 159.7 276.2 154.3 279.5Z" fill="white"/>
<path d="M169.3 690.6L165.6 694.9C118.2 749.6 59 817.1 55 902.9C51.2 982.5 21.7 1007.8 -1.22041e-05 1015.1V1013.4C21 1005.8 49.5 980.8 53.3 902.5C57.3 816 116.6 748.1 164.3 693.5L167.9 689.2C223.6 625.3 221.6 603.4 195.7 577.9C166.5 549.4 120.8 506.3 58.9 463.3C38.9 449.6 19.1 436.8 -0.100012 425.3V423.3C19.5 434.9 39.6 448 59.9 462C122.2 505.1 167.9 548.1 197 576.9C223.6 603.1 225.9 626 169.3 690.6Z" fill="white"/>
<path d="M397.2 105.3C387.6 110.6 377 114.9 365.4 117.2C355.5 119.5 344.9 120.5 333.3 120.5C238 120.5 111.1 48.8 30.1 -2.44156e-05H33.4C114.2 48.4 239.2 118.5 332.9 118.5C344.2 118.5 355.1 117.5 364.7 115.5C376 113.2 386.6 109.2 395.8 103.9C441.2 77.5 444.2 47.5 431.8 -2.44156e-05H433.8C446.3 48.1 443.2 78.6 397.2 105.3Z" fill="white"/>
<path d="M394.5 60.9C387.5 72.8 375.3 80.8 358.4 84.4C350.8 86 342.5 86.7 333.2 86.7C263.5 86.7 170.7 41.9 96.7 -2.44156e-05H98.1C171.9 41.7 263.8 86 333.2 86C342.1 86 350.4 85.3 358.1 83.7C374.7 80.1 386.6 72.1 393.5 60.5C402.9 44.1 401.7 21.7 396.9 -2.44156e-05H398.1C402.8 21.8 404.1 44.2 394.5 60.9Z" fill="white"/>
<path d="M321.5 -2.44156e-05C321 2.09998 320.3 3.89998 319.4 5.59998C316.4 10.6 311.8 13.5 305.8 14.9C303.5 15.2 300.8 15.6 297.8 15.6C282.8 15.6 263.2 8.29998 245.9 0.0999756H248.2C265 7.79998 283.6 14.6 297.8 14.6C300.4 14.6 303.1 14.6 305.4 13.9C311 12.6 315.7 9.89998 318.3 5.29998C319.2 3.79998 319.9 1.99998 320.3 0.0999756H321.5V-2.44156e-05Z" fill="white"/>
<path d="M344.5 -2.44156e-05C343.7 21.7 333.9 34.3 315.4 37.3C312.4 37.6 309.1 38 305.8 38C271.7 38 223.3 13.8 197.5 0.899976C196.7 0.599976 196 0.299976 195.3 -2.44156e-05H198.3C224.2 12.9 272.1 37 305.8 37C309.1 37 312.1 36.7 315.1 36.3C332.9 33.5 342.5 21.3 343.2 -2.44156e-05H344.5Z" fill="white"/>
<path d="M371.3 33C363.7 46.6 348.4 57.5 332.5 61.2C330.8 61.5 329.2 61.5 327.5 61.9C323.5 62.2 319.6 62.6 315.2 62.6C270.5 62.6 218.1 37.1 180 18.2L173.7 15.2C163.8 10.3 153.9 5.19998 144.2 -2.44156e-05H145.2C154.6 4.99998 164.1 9.79998 173.7 14.5L180 17.5C218.1 36.4 270.4 61.9 314.8 61.9C319.1 61.9 323.1 61.6 327.1 61.2C328.7 61.2 330.4 60.9 332.1 60.5C348 56.9 362.9 46.3 370.2 32.7C376.2 22 375.6 11 373 -2.44156e-05H374.3C376.9 11 377.2 22.1 371.3 33Z" fill="white"/>
<path d="M360.1 683.6C352.8 673.7 342.9 670.4 331.3 673C316.7 676.6 304.1 696.9 293.9 712.8C290.3 718.4 286.9 723.7 284 727.7C267.4 748.9 248.9 768.1 231 786.7C226.4 791.7 220.4 797 214.1 802.6C195.6 819.8 172.7 841 165.7 860.6C159.7 877.2 163.4 892.7 166.7 907.6C169.4 919.9 172.3 932.8 170 946.4C168.7 954.7 163.7 963 158.4 971.6C152.1 981.9 145.5 992.5 145.2 1004.1C145.2 1008.1 145.5 1011.7 146.9 1015.7C151.2 1028 155.9 1033.6 161.1 1033.6C166.4 1033.6 172.4 1028 181 1014.4C189.3 1001.5 192.6 986.2 195.6 971.7C198.9 957.1 201.9 941.9 210.5 928.6C226.4 903.4 254.6 885.2 279.1 868.6C281.1 867.3 283.4 866 285.4 864.6C326.5 837.4 358.9 815.9 373.2 757.9C377 742.6 376 703.5 360.1 683.6ZM371.7 757.5C357.5 814.8 325.3 836 284.6 863.2C282.6 864.5 280.6 865.9 278.3 867.2C253.5 883.4 225.3 902 209.1 927.5C200.5 940.7 197.2 956.3 194.2 971.2C191.2 985.8 187.9 1000.7 179.6 1013.6C174 1022.9 167 1032.1 161 1032.1C156.4 1032.1 152.4 1026.5 148.1 1015.2C146.8 1011.6 146.1 1008.2 146.4 1004.3C146.7 993.4 153.4 982.8 159.3 972.5C164.6 963.9 169.9 955.6 171.2 947C173.5 933.4 170.5 920.5 167.9 907.9C164.6 892.3 161.3 877.8 166.9 861.5C173.9 842.3 196.7 821.1 214.9 804.2C221.2 798.6 227.2 792.9 231.8 788C249.7 769.5 268.2 750.2 284.8 729C287.8 725 291.1 719.7 294.7 714.1C304.6 698.2 317.2 678.3 331.1 675C333.8 674.3 336.1 674 338.4 674C346.7 673.7 353.3 677.3 358.9 684.6C373 702.5 376 740.3 371.7 757.5Z" fill="white"/>
<path d="M388.5 675.7C382.5 665.8 375.3 659.8 368 654.5C361.7 649.5 355.8 645.2 351.1 637.9C347.8 632.6 348.4 626.6 349.1 620.4C349.8 613.8 350.4 607.2 346.4 601.2C338.5 589.9 331.5 588.3 324.5 587C319.5 586 314.2 584.7 308.3 580.4L308 579.7C291.1 560.8 234.5 499.2 215.2 499.2C212.9 499.2 211.2 499.9 209.9 501.5C207.2 504.8 207.6 511.4 210.2 522C211.9 528.3 228.1 536.9 245 545.9C259.2 553.5 273.8 561.5 278.8 567.1C283.1 572.4 289.1 579.7 288.7 582.3C288.7 583 287.7 583.3 286.4 584C283.4 585.3 279.1 587.6 281.4 598.2C283.1 605.5 287.4 612.4 292 619.4C296 626 300 632 301.3 637.9C305.6 654.1 278.8 683.9 261.2 703.8C255.2 710.4 250.3 716.1 247.3 720.4C234.4 737.6 218.5 753.2 202.9 768.4C172.8 798.2 141.6 829 130.7 871.4C113.5 935 110.2 991 120.1 1038C122.2 1048 126.4 1059.6 131.8 1069.9H134.6C129.2 1059.9 124.7 1048.2 122.4 1037.3C112.5 990.6 115.8 934.9 132 872C142.9 830.3 173.7 799.8 203.6 770C219.2 754.8 235.4 738.9 248.3 721.6C251.3 717.3 256.6 711.7 262.2 705.4C281.4 683.9 307.2 654.7 303 637.2C301.3 630.9 297.4 624.6 293.4 618C289.1 611.4 284.8 604.1 283.1 597.5C281.1 588.9 284.1 587.2 287.1 585.9C288.8 585.2 290.1 584.3 290.4 582.6C291.1 580.3 289.4 576.3 280.1 565.4C274.8 559.1 259.9 551.2 245.7 543.5C230.8 535.5 213.6 526.3 212.2 521C208.9 509.1 209.9 504.4 211.5 502.5C212.2 501.5 213.5 501.2 214.8 501.2C229.4 501.2 271.5 542.3 305.9 581C306.2 581.3 306.6 581.7 306.6 581.7C313.2 586.7 318.9 587.7 323.8 589C330.8 590.6 337.1 592 344.3 602.6C348 607.6 347.3 613.9 346.6 620.2C345.9 626.8 345.3 633.4 348.9 639.1C353.9 646.7 359.8 651.3 366.5 656.3C373.5 661.6 380.7 667.2 386.4 676.8C399.3 699 409.6 739.1 403 765.3C385.4 834.9 345 861.7 302 890.2C252.6 923 201.6 956.8 183.1 1058.5C182.3 1062.8 181.4 1066.7 180.4 1070.2H182.9C183.8 1066.7 184.6 1062.9 185.4 1058.8C204 957.9 254.7 924.5 303.4 892C346.8 863.2 387.9 836 405.4 765.8C412.1 739.3 401.8 698.2 388.5 675.7Z" fill="white"/>
<path d="M193.8 712.5C148 763.8 91.4 827.7 87.8 903.9C83.6 997.4 37.7 1036.9 -1.22041e-05 1049.4V1047.1C37 1034.5 81.6 995.7 85.8 903.9C89.4 827 146.4 762.8 192.5 711.1C232.9 665.7 265 629.9 251.8 599.8C230 550.2 111 450.8 -1.22041e-05 387.5V385.2C112 448.6 232 549.2 253.4 598.9C267 630 234.8 666.4 193.8 712.5Z" fill="white"/>
<path d="M607.5 222.8C607.5 225.1 606.8 227.1 605.5 228.4C603.2 230.7 598.9 232.1 591.9 232.1C587.6 232.1 582.6 231.8 576.7 230.8C565.8 228.8 555.2 224.2 544.9 219.9C538.9 217.2 532.6 214.6 526.7 212.6C525 212.3 523.4 211.6 521.4 210.9C498.9 203.6 468.4 193.3 464.1 175.4C461.8 166.8 466.1 156.9 476.3 146.3C492.2 129.7 508.4 112.8 519.4 87.3C528.6 66 539.1 26.8 538.6 -2.44156e-05H538.9C539.4 27 528.9 66.1 519.7 87.7C508.4 113.5 492.2 130.4 476.3 147C466.4 157.3 462.4 166.9 464.4 175.2C468.7 192.8 499.2 202.7 521.1 210C522.8 210.3 524.7 211 526.4 211.7C532.7 213.7 538.6 216.3 544.6 219C554.9 223.3 565.5 227.9 576.4 229.6C591.3 231.9 600.6 231.3 604.2 227.6C605.5 226.3 605.9 224.6 605.9 222.6C605.6 213.3 592 198.1 579.1 183.2C568.8 171.6 559.2 160.3 556.9 153.4C545 119.3 541 79.5 545.3 35.8C546 28.5 547.6 21.2 548.9 13.9C549.8 9.29998 550.7 4.69998 551.5 0.0999756H553.5C552.8 4.99998 551.8 9.79998 550.9 14.6C549.2 21.6 547.9 28.8 547.2 36.1C542.9 79.8 546.5 119.2 558.5 153.4C560.8 160.4 570.4 171.3 580.4 182.9C593.3 197.7 606.8 213.2 607.5 222.8Z" fill="white"/>
<path d="M413.7 134.4C401.4 141.4 387.2 146.6 372.3 150C360 152.7 347.1 154 333.2 154C223.3 154 86.6 73.6 -1.22041e-05 20.9V18.2C86.6 71 223.6 151.6 333.6 152C347.2 152 360.1 150.7 372 148C386.9 144.7 400.5 139.4 412.7 132.4C474.6 96.6 477.2 49.2 465.7 -2.44156e-05H468.2C479.7 49.9 476.9 97.8 413.7 134.4Z" fill="white"/>
<path d="M1.99999 678.7C1.39999 679.5 0.699988 680.4 -1.22041e-05 681.4V680C0.499988 679.4 0.899988 678.8 1.29999 678.3C17.5 658.4 30.5 640.9 27.8 623.6C26.1 613.3 18.8 604.1 5.59999 595.1C3.69999 593.9 1.89999 592.6 -1.22041e-05 591.3V590.1C1.99999 591.4 3.99999 592.7 5.99999 594.1C19.6 603 26.9 612.6 28.5 623.2C31.5 640.9 18.2 658.8 1.99999 678.7Z" fill="white"/>
<path d="M58 634.6C50.4 656.1 35.5 674 19.9 693.9C13.4 702.2 6.59999 710.5 -1.22041e-05 719.5V717.8C6.19999 709.1 12.7 701.2 19.2 693.3C34.8 674 49.3 655.8 57 634.6C65.3 611.1 56.7 601.5 18.2 576C15.2 574 12.2 571.7 8.89999 569.7C5.79999 567.6 2.89999 565.7 -1.22041e-05 563.7V562.3C3.19999 564.4 6.39999 566.6 9.59999 568.7C12.6 571 15.9 573 18.9 575C58 600.8 66.6 610.4 58 634.6Z" fill="white"/>
<path d="M321.3 760.5C321.3 759.8 320.3 759.5 319.3 759.5C314.3 759.5 309.7 765.5 306.1 769.8C305.4 770.8 304.8 771.4 304.1 772.1C300.8 775.7 297.8 779.7 294.5 783.7C292.5 786 290.5 788.7 288.5 791L288.2 791.3C281.6 799.3 278.9 804.2 279.9 806.9C280.2 807.6 280.9 808.6 282.5 808.9C282.8 808.9 283.2 808.9 283.2 808.9C296.4 808.6 307 796.7 312.3 789.4C317.3 782.4 320.9 775.2 321.9 769.2C322.3 767.8 323 762.8 321.3 760.5ZM321.3 769.1C320 774.7 316.7 782 311.7 788.7C306.7 795.6 296.5 807.2 283.9 807.6V807.9C283.6 807.9 283.6 807.9 283.2 807.9C281.9 807.9 281.9 807.2 281.9 807.2C281.6 806.2 281.6 803.2 289.8 793.3L290.1 793C292.1 790.7 294.1 788 296.1 785.7C299.1 782.1 302.4 778.1 305.7 774.1C306.4 773.4 307 772.4 307.7 771.4C310.7 767.4 315.3 761.8 319.6 761.8C320.3 761.8 320.9 762.1 321.2 762.5C322 763.1 321.6 766.5 321.3 769.1Z" fill="white"/>
<path d="M1127.3 704.2C1080.6 563.1 969.3 482.6 849.4 405.7C740.4 335.8 636.7 316.6 548.3 304C542 303 535.7 302.7 530.1 302.7C494 302.7 477.1 320.9 455.6 344.1C447.3 353 438.7 362 428.1 371.6C415.8 382.2 400.3 389.5 385.4 396.8C360.9 408.4 338 419.3 328.4 443.5C308.2 494.9 357.9 535.3 401.6 570.7C421.8 586.9 441 602.5 452.3 618.1C497 679.4 483.4 783.1 443 841C430.4 859.2 406.2 881.7 380.7 905.3C338.3 944.7 290.3 989.1 281.7 1026.9C277.7 1044.5 278.7 1056.7 285 1064.7C286.7 1066.9 288.9 1068.7 291.5 1070.1C296.5 1072.9 303.2 1074.3 311.5 1074.3C320.5 1074.3 331.3 1072.7 343.1 1070.1C358.5 1066.8 375.8 1061.8 393.6 1056.7C432.4 1045.4 476.1 1032.9 513.2 1032.9C531.1 1032.9 545.7 1035.5 558.3 1041.5C572.5 1048.1 584.8 1057.4 596.7 1066.7C598.2 1067.8 599.7 1069 601.1 1070.1H605.2C602.6 1068.1 600 1066.1 597.3 1064C585.7 1055.7 573.5 1046.1 558.9 1039.5C546.3 1033.9 531.1 1030.9 513.2 1030.9C475.8 1030.9 431.7 1043.5 393 1054.7C371.2 1060.9 350.2 1066.9 332.6 1070C324.7 1071.4 317.5 1072.2 311.2 1072.2C305.1 1072.2 300.1 1071.5 296 1070C291.8 1068.5 288.5 1066.3 286 1063.3C280 1056 279.4 1044.1 283 1027.2C291.3 990.1 339.3 945.7 381.4 906.6C406.9 882.7 431.4 860.2 444 842C484.7 783.4 498 679 453.3 617.1C442 601.5 422.8 586 402.3 569.4C358.9 534.3 309.5 494.5 329.4 444.2C338.7 420.7 361.5 409.7 385.7 398.5C400.9 391.2 416.5 383.9 428.8 373C439.4 363.7 448 354.5 456.3 345.5C477.5 322.6 494.4 304.7 529.8 304.7C535.4 304.7 541.4 305 547.7 306C636 318.6 739.7 337.8 848 407.4C967.6 483.9 1078.6 564.4 1124.9 705.2C1144.8 765.8 1136.2 837.4 1103 883.1C1080.5 914.2 1049.3 930.5 1012.6 930.5C999.7 930.5 985.8 928.5 971.8 924.2C927.7 911.6 900.2 885.4 887 844.4C875.1 807.6 875.7 762.6 876.4 718.9C877.4 649 878.1 576.5 828.7 534.7C805.2 514.8 804.5 514.5 790.9 517.8C784.9 519.1 777 521.1 763.1 522.4C752.8 523.4 745.5 523.7 739.9 523.7C720 524.4 720 524.4 690.9 550.5L690.6 550.8C682.3 558.1 670.7 563.7 658.5 569.3C639.9 577.9 621.1 586.9 614.1 602.4C604.8 623.6 613.1 684.2 618.7 710.4C625 741.2 644.9 769.7 662.1 794.5L665.8 799.8C671.8 808.7 678.4 817.7 684.7 826.3C721.5 877.3 759.2 929.7 758.2 995.2C757.8 1021.3 740.1 1050.3 716.5 1069.9H720.5C743.4 1050 760.2 1021.6 760.6 995.9C761.6 929.6 723.5 877 686.7 826C680.4 817.4 674.1 808.4 667.8 799.5L664.2 794.2C647 769.3 627.4 740.9 620.8 710.4C615.5 684.6 607.2 624.3 616.2 603.4C622.8 588.2 641.4 579.6 659.6 570.9C672.2 564.9 684.1 559.6 692.4 552L692.7 551.7C721.2 525.9 721.2 525.9 740.4 525.2C746.4 524.9 753.6 524.9 763.9 523.9C777.8 522.6 785.8 520.6 791.7 519.3C795.4 518.3 798.3 517.6 800.7 517.6C806.7 517.6 811.6 521.9 828.2 535.8C877.2 577.2 876.2 649.1 875.2 718.6C874.2 806.1 872.9 896.8 971.9 925.3C986.1 929.3 1000.1 931.6 1013.3 931.6C1050.4 931.6 1082.2 915 1105.1 883.6C1138.5 837.7 1147.5 765.5 1127.3 704.2Z" fill="white"/>
<path d="M1458.2 596.2C1454.2 592.9 1448.9 588.9 1443.3 584.9C1441.6 583.6 1439 581.3 1435.7 578.6C1423.1 567.7 1401.9 549.1 1387 549.1C1381 549.1 1376.7 552.1 1374.1 557.4C1370.8 564.4 1378.1 580.6 1383.4 591.2C1384.7 593.9 1385.7 596.2 1386.4 597.8C1387.7 601.1 1389 604.1 1390 607.1C1397 625.6 1404.2 644.5 1409.6 665.1C1410.3 667.4 1410.6 669.7 1411.3 672.4C1413.6 683.3 1416.9 697.2 1424.5 703.9C1427.5 706.5 1430.5 708.2 1433.1 709.2C1434.4 709.5 1435.7 709.9 1436.7 709.9C1445.6 709.9 1451.9 699.6 1457.9 689.7C1459.2 687.4 1460.6 685.1 1462.2 683.1L1463.5 681.1C1486.3 646.2 1500.3 625.3 1458.2 596.2ZM1462.2 679.7L1460.9 681.7C1459.6 684 1457.9 686.3 1456.6 688.3C1451 697.9 1445 707.5 1436.7 707.5C1435.7 707.5 1434.7 707.2 1433.4 707.2C1430.7 706.5 1428.1 704.9 1425.5 702.2C1418.2 695.9 1415.2 682.3 1412.9 671.7C1412.2 669 1411.9 666.7 1411.2 664.4C1405.9 643.5 1398.6 624.6 1391.3 606.1C1390.3 603.4 1389 600.1 1387.6 596.8C1386.9 595.1 1385.9 592.8 1384.6 590.2C1380 580.6 1372.4 564 1375.3 557.7C1378 552.7 1381.6 550.1 1386.9 550.1C1401.1 550.1 1422 568.3 1434.3 578.9C1437.6 581.9 1440.3 584.2 1441.9 585.2C1447.5 589.2 1452.8 593.2 1456.8 595.8C1497.9 625 1484.4 645.5 1462.2 679.7Z" fill="white"/>
<path d="M1470.4 547.8C1463.1 542.5 1455.8 536.5 1448.2 530.2C1424.7 511 1397.9 489.1 1373.7 489.1C1369.1 489.1 1364.4 490.1 1359.8 491.7C1317.4 507.6 1323.4 552.7 1331 578.2C1335.6 593.8 1341.3 609 1346.9 623.9C1353.5 641.1 1360.5 659 1365.1 677.2C1368.1 688.1 1369.4 699.7 1370.7 711C1375 745.1 1379 777.6 1424.7 777.6C1428.4 777.6 1432.3 777.3 1436.3 776.9C1441.6 776.2 1445.9 775.6 1449.5 774.2C1461.8 770.2 1465.4 762.9 1470.7 751.7C1472.4 748.4 1474.3 744.4 1476.7 740.4C1480.4 734.1 1484.3 728.1 1488.3 722.2V720.5C1484 726.8 1479.7 733.1 1475.7 739.7C1473.4 743.7 1471.4 747.7 1469.7 751C1464.4 761.9 1460.7 769.2 1448.8 772.9C1445.1 773.9 1441.2 774.9 1435.9 775.2C1431.9 775.5 1428 775.9 1424.3 775.9C1379.6 775.9 1375.6 745.4 1371.3 710C1370 698.7 1368.3 687.1 1365.7 676.2C1361.1 658 1354.1 640.1 1347.5 622.9C1341.9 608 1335.9 592.8 1331.6 577.5C1324.3 552.3 1318.4 508.3 1360.1 492.4C1364.4 490.7 1369 490.1 1373.7 490.1C1397.5 490.1 1424 512 1447.6 530.8C1455.2 537.1 1462.5 543.1 1470.1 548.4C1475.7 552.4 1480.4 556 1484 558.7C1485.3 559.7 1487 560.7 1488.6 561.7V560.4C1487.3 559.4 1485.9 558.7 1484.6 557.7C1480.7 555.1 1476.1 551.8 1470.4 547.8Z" fill="white"/>
<path d="M1369.1 65.8C1364.8 65.8 1360.5 65.8 1356.5 65.8C1352.5 65.8 1348.6 65.8 1344.6 65.8C1322.1 65.8 1304.2 67.1 1284.3 73.1C1274 76.4 1264.1 81.1 1254.8 86C1239.2 94 1224.3 101.6 1206.4 101.6C1203.4 101.6 1200.4 101.3 1197.5 100.9C1184.6 98.9 1174.6 91.3 1165 84C1154.4 75.7 1144.5 67.8 1130.2 67.8C1128.9 67.8 1127.5 67.8 1126.2 68.1C1117.6 69.1 1103.7 76.7 1090.1 84.3C1081.5 89.3 1073.2 93.9 1067.6 95.9C1059.3 98.9 1052.7 100.5 1048 101.5C1034.1 104.8 1032.4 106.1 1025.5 131.6C1023.5 138.6 1022.2 145.2 1020.9 151.8C1015.9 175.7 1012.3 194.2 986.8 212.4C969.6 224.3 948 230.3 920.5 230.3C893.3 230.3 864.8 224.7 839.7 219.7C826.4 217.1 814.2 214.7 804.9 213.7C799.6 213 791.3 212.7 782.7 212.7C758.5 212.7 730 221.6 728 234.2C727 240.2 731.6 249.4 759.8 258.4L762.8 259.4C869.1 293.5 943 337.9 1018.5 412.8C1039.4 433.3 1055.3 442.9 1068.5 442.9C1071.5 442.9 1074.8 442.2 1077.4 441.2C1091.6 435.9 1101.9 418 1113.8 397.5C1120.1 386.9 1127 374.6 1135.3 363C1175.4 306.7 1232.7 265.3 1297 247.1C1315.9 241.8 1334.4 238.8 1352 238.8C1409.3 238.8 1449.7 267 1487.8 295.8V293.8C1449.7 265 1409.3 237.5 1352 237.5C1334.4 237.5 1315.6 240.2 1296.7 245.8C1232.1 264.4 1174.5 305.8 1134 362.4C1125.7 374 1118.8 386.3 1112.5 396.9C1100.6 417.4 1090.6 435 1077.1 440C1074.4 441 1071.5 441.7 1068.5 441.7C1055.6 441.7 1040 432.1 1019.8 411.9C944.3 336.7 870.1 292.3 763.4 257.9L760.4 256.9C739.5 250.3 728.6 242.3 729.9 234.7C731.6 224.1 756.7 214.5 782.9 214.5C791.2 214.5 799.5 214.8 804.8 215.5C814.1 216.5 826.3 218.8 839.6 221.5C864.8 226.5 893.6 232.4 920.8 232.4C948.6 232.4 970.8 226.4 988 214.2C1013.8 196 1017.8 176.8 1022.8 152.6C1024.1 146.3 1025.4 139.7 1027.4 132.7C1034 107.2 1035.3 106.9 1048.6 103.5C1053.2 102.5 1059.5 100.8 1068.2 97.9C1074.2 95.6 1082.4 90.9 1091.1 86.3C1103.7 79 1118.3 71.1 1126.5 70.1C1127.8 70.1 1129.2 69.8 1130.1 69.8C1143.7 69.8 1153.6 77.4 1163.9 85.7C1173.5 93.3 1183.4 101.3 1197 102.9C1200 103.2 1203 103.6 1205.9 103.6C1224.1 103.6 1239.7 95.6 1254.9 88C1264.2 83.4 1273.8 78.4 1284.1 75.1C1303.6 69.1 1321.5 67.8 1344.1 67.8C1348.1 67.8 1352 67.8 1356 67.8C1360.3 67.8 1364.3 67.8 1368.9 67.8C1389.1 67.8 1407.3 70.1 1424.2 75.1C1445.7 81.4 1466.9 89.7 1487.8 99.9V97.9C1466.9 88 1445.7 79.7 1424.5 73.4C1407.8 68.5 1389.6 65.8 1369.1 65.8Z" fill="white"/>
<path d="M1471.1 577C1467.1 574.3 1462.2 570.7 1456.5 566.7C1448.5 561.1 1441.3 554.8 1433.3 548.5C1431.6 547.2 1429.6 545.5 1427.3 543.5C1414.1 532.2 1395.8 516.7 1378.9 516.7C1374.3 516.7 1370 518 1366 520.3C1336.8 538.2 1354.4 581.3 1365 606.8C1366.3 609.8 1367.3 612.8 1368.3 615.4C1375.3 633.3 1382.2 651.8 1387.2 671.1C1388.2 674.7 1389.2 679.1 1390.2 683.7C1394.8 704.6 1401.1 733.1 1417 743.3C1419.7 745 1422.3 746 1425.3 746.3C1426.3 746.3 1427 746.6 1428 746.6C1447.5 746.6 1466.8 717.1 1481 695.3C1483.6 691.3 1486 687.7 1487.9 684.7V683C1485.6 686.3 1482.9 690.3 1480 694.6C1466.1 716.1 1446.5 745.3 1427.7 745.3C1427 745.3 1426 745.3 1425.4 745C1422.7 744.7 1420.1 743.7 1417.4 742C1401.8 732.1 1395.5 703.6 1390.9 683C1389.9 678.4 1388.9 674.1 1387.9 670.4C1382.9 650.9 1375.7 632.3 1369 614.4C1368 611.7 1366.7 608.8 1365.7 605.8C1355.4 580.3 1338.2 537.9 1366.4 520.3C1370 518 1374.3 517 1378.7 517C1395.3 517 1413.2 532.2 1426.4 543.5C1428.4 545.2 1430.4 546.8 1432.4 548.5C1440.4 555.1 1448 561.1 1455.6 566.7C1460.9 570.7 1466.2 574.3 1470.2 577C1475.5 580.6 1480.5 584 1486.1 587.9C1486.8 588.2 1487.1 588.6 1487.8 588.9V587.6C1487.5 587.3 1487.1 586.9 1486.5 586.9C1481.7 583.9 1476.4 580.3 1471.1 577Z" fill="white"/>
<path d="M1298.9 811.8C1300.9 814.1 1304.2 817.8 1313.1 818.4C1346.2 821 1396.3 825.4 1438.7 863.8L1439 864.1C1453.6 877.4 1465.2 893.9 1473.8 913.8C1476.1 919.1 1480.1 922.4 1484.4 922.4C1485.7 922.4 1486.7 922.1 1488.1 921.7V920.4C1486.8 921.1 1485.8 921.4 1484.4 921.4C1480.4 921.4 1476.8 918.4 1474.5 913.4C1465.9 893.5 1454 876.6 1439.4 863.4L1439.1 863.1C1396.7 824.3 1346.3 820.4 1313.2 817.7C1304.6 817 1301.3 813.7 1299.6 811.4C1295.3 805.8 1295 797.5 1295.3 794.8C1299.9 774.6 1305.6 749.4 1303.6 721.6C1300 674.9 1281.4 634.8 1263.2 595.7C1248.6 564.6 1232.4 529.1 1238 513.2C1248.3 484.4 1289.7 443.3 1307.2 427.1C1318.1 416.8 1331.4 411.5 1346.3 411.5C1354.9 411.5 1362.2 413.2 1366.8 414.8C1397.3 424.7 1440.3 447.3 1488.4 478.1V476.8C1440.4 446 1397.3 423.5 1367.2 413.9C1362.6 412.2 1354.9 410.6 1346.3 410.6C1331.1 410.6 1317.8 415.9 1306.5 426.5C1289 442.7 1247.5 484.1 1237.3 513C1231.3 529.6 1247.9 565 1262.5 596.5C1280.4 635.3 1299.3 675.3 1302.9 722C1304.9 749.5 1299.3 774.7 1294.6 794.9C1293.9 797.3 1294.6 806.2 1298.9 811.8Z" fill="white"/>
<path d="M1255.4 -2.44156e-05C1222.1 6.09998 1188.3 11.8 1155.7 11.8C1129.1 11.8 1105.4 7.89998 1084.1 -2.44156e-05H1091.2C1110.7 6.39998 1132.2 9.49998 1156.1 9.49998C1184.2 9.49998 1213.5 5.19998 1242.5 -2.44156e-05H1255.4Z" fill="white"/>
<path d="M1488.7 17.1V19.8C1485.7 17.8 1483.1 16.2 1480.1 14.5C1475.5 11.5 1470.8 8.89998 1466.5 6.19998C1462.8 3.99998 1459.1 1.89998 1455.2 -2.44156e-05H1460.3C1462.8 1.29998 1465.3 2.69998 1467.8 4.19998C1472.1 6.89998 1476.7 9.49998 1481.4 12.5C1483.7 14.2 1486 15.5 1488.7 17.1Z" fill="white"/>
<path d="M1361.5 782C1369.1 786 1379.4 788 1389.3 789.6C1396.6 790.9 1404.2 792.2 1410.5 794.6C1414.5 795.9 1418.8 798.2 1423.4 800.6C1433 805.2 1443.6 810.5 1453.5 810.5C1455.5 810.5 1457.1 810.2 1458.8 809.8C1459.1 809.8 1459.8 809.5 1460.1 809.5C1474 805.2 1481.6 787.6 1488.3 771.4V768.4V768.7C1481.7 785.3 1474.4 803.8 1460.1 808.1C1459.8 808.1 1459.1 808.4 1458.8 808.4C1457.1 808.7 1455.5 809.1 1453.5 809.1C1443.9 809.1 1433.3 803.8 1424 799.2C1419.4 796.9 1415.1 794.9 1411.1 793.2C1404.8 790.9 1397.2 789.6 1389.6 788.2C1379.7 786.5 1369.4 784.9 1362.1 780.6C1345.9 771.7 1347.5 755.1 1349.2 737.9C1349.9 730.9 1350.5 724 1350.2 717.7C1345.9 662.7 1325.4 618.7 1305.5 575.9C1296.6 556.7 1295.9 535.5 1303.5 516.3C1311.8 495.8 1329.7 478.9 1351.9 470.3C1358.9 467.7 1366.1 466.3 1373.4 466.3C1405.2 466.3 1435.3 490.8 1461.8 512.3C1469.4 518.3 1476.4 524.2 1483.3 529.2C1485 530.5 1486.6 531.5 1488.3 532.8V531.5C1487 530.5 1485.6 529.5 1484 528.5C1477.4 523.5 1470.1 517.9 1462.8 511.6C1436.3 489.7 1406.2 465.2 1373.7 465.2C1366.1 465.2 1358.8 466.5 1351.8 469.2C1329.3 477.8 1311.4 494.7 1302.8 515.6C1294.9 535.1 1295.5 556.3 1304.8 575.9C1324.7 618.3 1344.9 662.4 1349.2 717.3C1349.5 723.6 1348.9 730.6 1348.2 737.5C1346.2 755.2 1344.6 772.7 1361.5 782Z" fill="white"/>
<path d="M1369.1 99.3C1341.3 99.3 1311.5 104.3 1280.3 109.6C1244.9 115.6 1208.4 121.9 1169.3 121.9C1166.7 121.9 1163.7 121.9 1161 121.9C1147.4 121.6 1136.2 119.2 1125.9 117.3C1117.3 115.6 1109.7 114 1102.4 114C1085.2 114 1072.6 122.9 1058.7 145.1C1052.1 155.7 1047.1 168.6 1042.5 180.9C1034.2 202.8 1025.6 225.3 1006.7 238.9C1000.1 243.5 987.5 247.2 974.2 250.8C951 257.4 924.8 265 921.2 280.6C916.9 300.1 957 327 978.5 341.6C982.5 344.2 986.1 346.6 988.4 348.2C1013.9 366.8 1034.8 379.3 1054.7 379.3C1057.4 379.3 1060 379 1062.7 378.6C1078.6 375.6 1093.2 364.4 1108.1 343.2C1152.5 280.6 1216.4 234.9 1288 214.3C1309.9 208 1331.7 204.7 1352.3 204.7C1409.6 204.7 1451.7 227.9 1488.1 253.4V252C1451.7 226.5 1409.6 203.3 1352.3 203.3C1331.4 203.3 1309.9 206.6 1287.7 212.9C1215.8 233.4 1151.9 279.5 1107.5 342.1C1092.6 363.3 1078.3 374.2 1062.8 377.2C1060.1 377.5 1057.5 377.9 1054.8 377.9C1035.3 377.9 1014.4 365.6 989.2 347.1C986.9 345.4 983.6 343.1 979.3 340.5C957.8 326.3 918 299.8 922.3 280.9C925.6 266 951.8 258.4 974.6 251.7C987.8 248.1 1000.4 244.4 1007.1 239.4C1026.3 225.8 1034.9 203 1043.2 181.1C1047.8 168.8 1052.8 155.9 1059.4 145.3C1073 123.4 1085.6 114.5 1102.1 114.5C1109.4 114.5 1116.7 115.8 1125.3 117.8C1135.6 119.8 1146.8 122.1 1160.4 122.4C1163.1 122.4 1166 122.4 1168.7 122.4C1207.8 122.4 1244.2 116.1 1279.7 110.1C1311.2 104.8 1340.6 99.8 1368.5 99.8C1385.7 99.8 1401 101.8 1414.9 105.8C1439.1 112.8 1462.9 123 1487.8 135.6V134.6C1463.3 122.3 1439.4 112.1 1415.3 105.1C1401.9 101.3 1386.6 99.3 1369.1 99.3Z" fill="white"/>
<path d="M1339.9 799.6C1346.5 801.3 1353.1 802.9 1359.8 804.2C1394.6 812.2 1424.4 819.1 1454.2 846.3L1454.9 847C1461.8 853.3 1467.1 856.3 1471.5 856.3C1472.2 856.3 1472.8 856.3 1473.5 856C1480.1 854.3 1483.1 845.4 1486.7 833.8C1487.4 832.1 1487.7 830.2 1488.4 828.5V825.2C1487.4 827.9 1486.4 830.8 1485.7 833.5C1482.4 844.8 1479.1 853.7 1473.1 855C1468.8 856 1463.2 853 1455.5 846.1L1454.8 845.4C1424.6 818.2 1394.5 811.3 1360.1 803C1353.8 801.7 1347.2 800 1340.2 798.4C1316 792.4 1320 769.6 1324 747.4C1325.7 737.8 1327.6 727.9 1327 719.6C1323 668.6 1303.5 626.5 1284.6 585.8C1282.3 580.8 1280 576.2 1277.6 571.6C1265.4 547.7 1255.1 527.2 1270 501.7C1281.3 482.5 1298.2 466.9 1314.7 452C1317.7 449.4 1320.7 446.7 1323.6 443.7C1329.9 437.7 1338.5 434.8 1349.1 434.8C1389.8 434.8 1452.8 478.2 1488.9 504.4V503.7C1452.5 477.5 1390.2 434.5 1349.1 434.5C1338.2 434.5 1329.2 437.5 1322.9 443.8C1319.9 446.4 1316.9 449.1 1314.3 452.1C1297.7 467.3 1280.8 482.9 1269.6 502.1C1254.4 527.9 1265.3 549.8 1277.2 573C1279.5 577.6 1281.8 582.3 1284.2 587.2C1303.1 627.9 1322.6 669.7 1326.6 720.7C1327.3 729 1325.6 738.9 1323.6 748.5C1319.1 770.1 1314.8 793.3 1339.9 799.6Z" fill="white"/>
<path d="M1376.7 1001.3C1360.5 961.5 1336 943 1300.2 943C1273 943 1241.9 952.9 1205.8 964.5C1161.4 978.7 1111.4 995 1057.4 995C1015.3 995 976.9 985.4 939.5 965.5C824.2 903.9 820.8 792 830.8 701.2C834.8 665.8 828.5 637.9 812.6 620.4C801.3 608.1 786.4 601.5 768.9 601.5C735.8 601.5 694 627.3 679.1 676.7C664.9 723.1 698.3 765.5 737.1 814.2C780.8 869.2 830.2 931.8 820.6 1015.3C818.5 1034.3 814.1 1053 808 1070.1H809.6C815.7 1052.9 820.1 1034.2 822.2 1015C831.8 930.9 782.1 867.9 738.4 812.6C700 764.2 666.9 722.2 680.8 676.8C695.4 628.4 736.1 602.9 768.6 602.9C785.5 602.9 800.4 609.2 811 621.1C826.2 638.3 832.5 665.8 828.6 700.6C818.7 792 822 905 938.2 966.9C976 987.1 1014.7 996.7 1057.1 996.7C1111.4 996.7 1161.8 980.5 1206.2 966.2C1242 954.6 1273.1 944.7 1300 944.7C1335.4 944.7 1358.3 962.3 1374.5 1001.7C1384.3 1025.6 1389.5 1048.5 1391.3 1070H1393.7C1391.8 1048.3 1386.6 1025.3 1376.7 1001.3Z" fill="white"/>
<path d="M1443.3 1050.7C1447.6 1053.3 1454.6 1055 1462.8 1055C1470.1 1055 1479 1053.7 1488.3 1051V1048.7C1479 1051.7 1470.1 1053 1462.8 1053C1455.2 1053 1448.6 1051.7 1444.6 1049C1425.1 1036.4 1416.4 1014.5 1407.5 991.4C1399.6 971.2 1391.6 950.7 1375.7 936.1V935.4H1375C1356.8 919.5 1332.3 911.5 1300.1 911.5C1268.6 911.5 1235.8 919.1 1209.3 925.1C1191.1 929.1 1175.5 932.7 1165.6 932.7C1159.6 932.7 1156 931.4 1154.7 929.1C1152.7 925.8 1154.4 919.5 1159 910.5C1181.9 868.8 1228.2 769.1 1224.9 728C1222.2 695.5 1206.7 661.7 1191.8 629.3C1169.9 581.9 1147.1 533.2 1163.6 486.9C1182.5 433.9 1265.3 339.2 1324.3 330.9C1327.6 330.6 1331.6 330.2 1335.2 330.2C1373.6 330.2 1429.6 353.1 1488.2 386.2V383.9C1429.6 350.8 1373.6 328.2 1335.2 328.2C1331.2 328.2 1327.2 328.5 1323.9 328.9C1264.3 337.2 1180.5 432.9 1161.2 486.2C1144.3 533.6 1167.2 582.6 1189.4 630.3C1204.3 662.8 1219.9 695.9 1222.5 728C1225.5 764.8 1185.1 857.9 1156.9 909.5C1151.3 919.4 1149.9 926.1 1152.6 930.4C1154.6 933.7 1158.9 935.4 1165.5 935.4C1175.8 935.4 1191.7 931.8 1209.9 927.8C1236.4 921.8 1269.2 914.2 1300 914.2C1331.8 914.2 1355.6 921.8 1373.5 937.7C1389.1 951.9 1397.3 972.5 1405 992.7C1414.5 1015.6 1423.4 1037.8 1443.3 1050.7Z" fill="white"/>
<path d="M1280 1053C1276.7 1052 1273.7 1051.7 1270.7 1051.7C1261.1 1051.7 1253.8 1056 1245.5 1061C1243.5 1062 1241.5 1063.3 1239.5 1064.3C1235.4 1066.6 1231.3 1068.5 1227.2 1070H1231.3C1234.2 1068.7 1237.2 1067.3 1240.1 1065.6C1242.1 1064.3 1244.1 1063.3 1246.1 1062.3C1254.4 1057.3 1261.3 1053.4 1270.6 1053.4C1273.6 1053.4 1276.2 1053.7 1279.5 1054.7C1287.9 1056.9 1293.7 1062 1296.8 1070H1298.7C1295.5 1060.9 1289 1055.2 1280 1053ZM937.5 1067.6C932.5 1067.6 927.8 1068.4 923.3 1070H933.9C934.9 1069.9 935.9 1069.9 936.9 1069.9C937.9 1069.9 938.9 1069.9 939.9 1070H952.8C947.7 1068.5 942.6 1067.6 937.5 1067.6Z" fill="white"/>
<path d="M1354.8 1009.9C1338.9 971.8 1319.3 966.5 1300.1 966.5C1276.6 966.5 1247.1 976.1 1213 987C1166.9 1001.9 1114.9 1018.5 1057.3 1018.5C1011.3 1018.5 969.2 1007.9 928.1 986C799 917.2 797.3 788.7 807.3 698.2C810.3 670 806 647.8 795.1 635.6C788.5 628.3 779.5 624.3 768.9 624.3C744.4 624.3 713.6 644.5 701.7 682.6C691.1 717.4 720.9 754.8 755.7 798.5C799.7 854.2 854.7 923.7 844.1 1016.8C842 1035.1 837.9 1053 831.9 1069.9H833.1C839 1053 843.1 1035.3 845.1 1017.1C855.7 923.7 800.7 854.1 756.3 798.1C721.8 754.7 692.4 717.3 702.6 683.1C714.2 645.3 744.7 625.5 768.8 625.5C779.4 625.5 788 629.1 794.3 636.4C805.2 648.3 809.2 670.2 806.2 698C796.3 788.8 797.9 917.6 927.8 986.9C968.9 1008.8 1011.3 1019.4 1057.3 1019.4C1115.3 1019.4 1167.3 1002.5 1213.3 987.6C1247.4 976.7 1276.6 967.1 1300.1 967.1C1318.7 967.1 1338.2 972.4 1353.8 1010.2C1362.4 1031 1367 1051 1368.7 1069.9H1369.9C1368.1 1051 1363.5 1030.9 1354.8 1009.9Z" fill="white"/>
<path d="M777.5 651.2C776.5 648.9 774.2 647.2 768.9 647.2C751 647.2 731.5 665.1 725.2 681.3C720.9 691.9 724.2 710.1 733.8 730.3C742.8 749.2 755 763.4 764 766.1C765.3 766.4 766.7 766.8 768 766.8C769.7 766.8 771 766.5 772.3 766.1C783.9 762.1 783.6 755.2 782.9 739.6C782.6 730 781.9 717.1 783.9 699.2C786.4 675 782.8 656.8 777.5 651.2ZM782.8 698.5C780.8 716.7 781.1 729.6 781.8 739.3C782.5 754.9 782.5 760.5 772.2 764.1C769.9 765.1 767.2 765.1 764.6 764.1C756 761.4 744.4 747.5 735.4 729C725.8 709.5 722.8 691.6 726.8 681.3C733.1 665.7 752 648.2 768.9 648.2C773.5 648.2 775.5 649.5 776.8 651.2C781.8 657.1 785.1 675 782.8 698.5Z" fill="white"/>
<path d="M1314.4 1029.8C1309.8 1020.5 1303.1 1015.6 1295.5 1015.6H1293.5C1279.6 1016.9 1260.4 1022.6 1235.9 1029.8C1190.2 1043.4 1127.3 1061.6 1059.3 1062.6C1001.3 1063.6 934.8 1040.4 912.2 1029.5C904.9 1025.9 900 1024.2 896.6 1024.2C890 1024.2 889.6 1030.5 889 1041.1C888.7 1048.5 888.1 1058.5 885.2 1070H886.5C889.5 1058.8 889.8 1048.9 890 1041.4C890.3 1031.1 890.7 1025.2 896.6 1025.2C899.6 1025.2 904.6 1026.9 911.5 1030.2C933.7 1041.1 998.3 1063.3 1055.6 1063.3H1058.9C1127.1 1062.3 1189.7 1043.8 1235.8 1030.2C1260.3 1022.9 1279.5 1017.3 1293.4 1016C1301.7 1015 1308.3 1019.6 1313.3 1029.6C1318.3 1039.5 1321 1053.8 1321.5 1070.1H1322.7C1322.2 1053.7 1319.4 1039.6 1314.4 1029.8Z" fill="white"/>
<path d="M1333 1018.9C1321.1 989.7 1309.8 989.7 1299.9 989.7C1280 989.7 1252.2 998.7 1220.1 1008.9C1172.4 1024.1 1118.7 1041.7 1057.4 1041.7C1005.1 1041.7 962.3 1032.1 919.6 1010.6C913 1007.3 906.7 1003.6 901.1 1000.3C889.8 993.7 880.9 988.7 875.3 988.7C871 988.7 868.7 991.7 868.7 998.3C868.7 999.3 868.7 1000.9 869 1003.3C871.2 1026.1 869.4 1048.4 863.6 1070H864.9C865.1 1069.4 865.2 1068.8 865.4 1068.2C873.7 1037.1 871.4 1012.9 870.4 1002.6C870.1 1000.3 870.1 998.6 870.1 997.6C870.1 990 873.4 989 875.7 989C881 989 890.3 994.3 901.2 1000.6C906.8 1003.9 913.1 1007.6 919.7 1010.9C962.8 1032.8 1005.2 1042.4 1057.8 1042.4C1119.4 1042.4 1173.4 1024.9 1220.8 1009.6C1252.9 999.3 1280.8 990.4 1300.3 990.4C1309.9 990.4 1320.8 990.4 1332.4 1018.9C1339.7 1036.7 1343.5 1053.9 1344.7 1070H1345.5C1344.2 1053.8 1340.4 1036.7 1333 1018.9Z" fill="white"/>
<path d="M951.4 116.8C958.7 135.4 965.6 152.9 951.4 159.9C946.4 162.2 939.8 163.2 930.2 162.9C912.3 162.2 895.1 157.3 878.2 152.6C866.9 149.6 855 146.3 843.1 144.3C799.4 137 758 138.3 721.2 148.3C719.9 148.6 718.9 149 717.5 149.3C704.9 153 692.7 157.9 681.1 162.9C664.2 169.8 650 175.8 637.4 175.8C617.9 175.8 606.6 160.6 601 126.1C593.9 81.8 596.3 36.3 599.6 -2.44156e-05H601.6C598.3 36.1 595.8 81.7 602.9 125.8C608.5 158.9 618.8 173.5 637 173.5C648.9 173.5 663.2 167.5 679.7 160.6C691.3 155.6 703.6 150.7 716.5 147C717.5 146.7 718.8 146.3 720.1 146C757.2 136.1 798.9 134.4 843 141.7C854.9 143.4 866.9 146.7 878.5 150C895.1 154.6 912.3 159.6 929.8 160.3C939.1 160.6 945.7 160 950 157.7C962.3 151.7 956.3 135.8 949 117.6C944.7 106.7 940 95.1 939.4 84.5C937.5 55 945.3 27 959.2 -2.44156e-05H961.7C947.6 27 939.6 55 941.8 84.4C942.8 94.7 947.1 105.9 951.4 116.8Z" fill="white"/>
<path d="M583.7 860.5C581.4 858.5 579.4 857.5 577.7 857.5C573.1 857.5 569.7 863.5 564.8 872.4C559.8 881.7 552.9 894.3 540.6 907.2L537 910.8C523.1 925.4 516.8 932 518.5 935.6C519.2 937.3 521.5 937.9 525.5 937.9C528.8 937.9 534.1 937.2 542.7 936.2C546.3 935.9 549.6 935.5 553.3 935.5C582.1 935.5 606 951.7 623.5 963.3C633.8 970.3 641.7 975.6 647.7 975.6C650 975.6 652 974.6 653.7 972.6C671.8 949.6 607.5 882.4 583.7 860.5ZM652.2 972.2C650.9 973.9 649.6 974.5 647.6 974.5C642.3 974.5 634.4 969.2 624.4 962.6C606.8 950.7 582.7 934.4 553.2 934.4C549.5 934.4 545.9 934.7 542.3 935.1C534 936.4 528.7 936.8 525.4 936.8C522.1 936.8 520.4 936.5 520.1 935.5C519.1 932.8 526.7 924.9 538.3 912.3L541.9 908.6C554.2 895.7 561.1 882.8 566.4 873.5C571 865.2 574 859.6 577.7 859.6C579 859.6 580.7 860.6 582.7 862.3C612.2 888.7 668.5 951.3 652.2 972.2Z" fill="white"/>
<path d="M589 888.7C587.3 888.7 585.7 888.4 584.4 888.4C572.8 888.4 557.9 906.6 557.9 915.2C557.9 918.8 560.2 920.8 563.9 920.8C581.1 921.1 599 932.1 612.3 939.7C620.2 944.3 625.9 947.7 629.2 947.7C630.2 947.7 631.2 947.4 631.9 946.7C632.6 946 632.9 944.7 632.9 942.7C631.4 926.8 601.2 895 589 888.7ZM629.7 945.3C629.7 945.3 629.4 945.6 629 945.6C626.4 945.6 620.4 942 613.4 938C600.2 930.1 581.6 918.8 564.1 918.8C561.4 918.8 560.4 917.8 560.4 915.5C560.4 907.9 574.3 891 584.6 891C585.9 891 586.9 891.3 587.9 891.7C600.5 898 628.6 929.1 630 943.4C630 944.7 630 945.3 629.7 945.3Z" fill="white"/>
<path d="M728.8 431.5C725.8 426.2 672.5 396 595.3 390.1L592 389.8C585 389.1 579.1 388.8 573.5 388.8C553.3 388.8 537.4 394.4 499.6 426.2C493.6 431.2 487.7 435.8 481.7 440.4C463.5 454.3 447.6 466.6 448.6 480.2C449.3 490.8 459.9 501.1 481.4 513C505.3 526.2 519.8 552.4 529.4 569.6C535.4 580.5 539.3 587.8 543.3 587.8C546.3 587.8 548.3 583.8 550.6 574.9C558.9 541.1 586.4 496.4 629.1 472.5C672.2 448.3 701 442 716.6 438.7C724.2 437 728.2 436 729.2 434.1C729.4 433.5 729.4 432.5 728.8 431.5ZM727.4 433.5C726.7 435.2 722.4 435.8 715.8 437.5C700.2 440.8 671.4 447.1 628 471.3C584.9 495.2 557.4 540.2 549.2 574.3C547.2 582.6 545.2 586.6 542.9 586.6C539.6 586.6 535.3 578.6 529.7 569C520.4 551.8 505.9 525.3 481.7 512C460.8 500.4 450.2 489.8 449.2 479.9C448.2 466.7 463.8 454.7 481.7 440.8C487.7 436.2 493.6 431.5 499.6 426.6C537 394.8 553.3 389.2 572.8 389.2C578.4 389.2 584.4 389.5 591.4 390.2L594.7 390.5C669.9 396.5 724.6 426.3 727.2 431.6C727.8 432.5 727.4 433.2 727.4 433.5Z" fill="white"/>
<path d="M825.8 456.4C823.5 448.4 806.9 441.2 795.6 436.5C792.3 435.2 789.6 433.8 787.6 432.8C771 424.2 754.8 416.6 740.6 410.6C682 384.8 628.3 369.2 577 362.6C571.4 361.9 566.1 361.6 561.8 361.6C536.6 361.6 516.8 372.5 478 409C468.4 417.9 458.5 425.6 449.2 432.8C428 449.4 411.1 462.6 411.4 478.8C411.7 491.7 423 505.6 446.8 522.5C485.2 549.3 510.7 590.4 527.6 617.6C537.5 633.5 544.5 644.8 549.5 644.8C552.5 644.8 554.5 641.5 555.8 633.9C564.4 588.2 583 523.6 645.2 489.1C664.4 478.5 686.3 469.9 711.8 463.3C716.8 462 722.4 458.3 727.7 454.7C734.7 450.1 741.6 445.4 748.2 445.4C748.9 445.4 749.9 445.4 750.5 445.7C754.1 446.4 756.8 448.4 759.4 450.7C762.4 453 765.4 455.3 769 455.3C770.3 455.3 772 455 773.6 454.3C776.3 453.3 777.9 451 779.2 449C781.2 446 783.2 443.4 788.8 443.7C794.4 444 797.4 448.3 800.7 453C803 456.3 805.3 459.3 808.7 461.3C811 462.6 815.3 464 819.3 464C821.9 464 823.9 463.3 824.9 462C826.2 460.7 826.5 458.7 825.8 456.4ZM823.8 460.7C822.8 462 820.5 462.4 819.2 462.4C815.9 462.4 811.6 461.1 809.3 459.7C806.3 458 804 454.7 801.7 451.7C798.4 447.1 795.1 442.4 789.1 442.1C782.8 441.4 780.8 444.7 778.8 447.7C777.5 449.7 776.1 451.7 773.5 452.7C771.8 453.4 770.5 453.7 769.2 453.7C765.6 453.7 762.9 451.7 760.2 449.4C757.6 447.4 754.6 445.1 750.6 444.4C749.9 444.4 748.9 444.1 748.3 444.1C741.3 444.1 734.1 449.1 727.1 453.7C721.5 457.4 716.5 461 711.5 462.3C686 468.9 664.1 477.5 644.9 488.1C582.3 522.9 563.4 587.8 554.8 633.5C553.5 640.1 551.8 643.4 549.5 643.4C545.2 643.4 537.9 632.1 528 616.2C511.1 589 485.3 548.3 446.8 521.1C423.3 504.5 412 490.9 411.7 478.4C411.4 462.5 427.9 449.6 449.1 433C458.7 425.7 468.6 417.8 478.3 409.1C517.1 373 536.6 362.1 561.4 362.1C566 362.1 571 362.4 576.6 363.1C628 369.9 681.4 385.5 740 411C753.9 417 770.5 424.6 786.7 433.2C788.7 434.2 791.3 435.5 794.7 436.8C805.6 441.4 822.2 448.7 824.2 456C824.8 458 824.5 459.7 823.8 460.7Z" fill="white"/>
<path d="M1093.8 705.2C1055.7 581.3 964.6 507.4 829.5 428.3C726.8 368.4 640.3 349.5 561.8 338.5C555.8 337.8 550.5 337.2 545.2 337.2C512.4 337.2 496.8 353.8 477.3 375C469.7 382.9 462.1 391.6 452.1 400.2C440.8 410.1 431.2 416.1 422.6 421.4C408.7 430 396.8 437.3 383.8 456.8C357.6 495.9 392.8 519.7 429.5 544.9C449 558.1 469.3 572.1 479.8 588.3C547.7 691 520.2 800.6 472.2 869.2C458.3 888.7 438.4 907.3 416.9 926.8C390.7 950.6 363.9 975.5 348.3 1003C341.7 1014.9 339.7 1022.9 342.7 1027.5C344.7 1030.8 349.3 1032.5 356.3 1032.5C368.9 1032.5 389.1 1027.2 412.6 1021.2C445.4 1012.6 486.1 1002 522.3 1002C541.5 1002 557.7 1005 571 1010.9C584.2 1016.9 595.2 1025.5 606.1 1033.8C623.6 1047.7 640.6 1060.6 664.1 1060.6C666.8 1060.9 669.1 1060.6 671.7 1060.3C694.2 1057.6 715.8 1042.1 726 1020.5C735.6 1000.9 740.6 967.5 711.1 920.5C698.5 900.3 684.6 879.7 671.3 859.9C633.2 803.2 597.1 749.9 582.5 696.2C565.6 635.6 579.2 585.6 624.9 538.9C664.7 498.5 717 475.3 768.7 475.3C807.5 475.3 842.2 488.9 866.4 513.7C892.9 540.9 906.2 580.9 904.5 629C904.2 640.3 903.5 651.9 903.2 664.1C901.2 707.5 898.9 756.9 905.8 797.9C913.8 844.9 933 874.1 964.4 887C981.3 894 997.2 897.3 1011.8 897.3C1038.3 897.3 1060.8 885.7 1077.1 863.8C1104.7 826.7 1111.4 762.8 1093.8 705.2ZM1076.6 863.8C1060.7 885.3 1038.2 896.9 1012 896.9C997.4 896.9 981.9 893.6 965 886.6C933.9 874 915 845.2 907 798.1C900.1 757 902.4 708 904.4 664.3C905.1 652.1 905.4 640.5 905.7 629.2C907 580.8 893.8 540.4 867.3 512.9C843.1 487.7 808 474.1 768.9 474.1C716.9 474.1 664.2 497.3 624.5 538C600.3 562.8 585.1 588.4 578.5 616.2C572.5 641 573.5 667.2 581.8 696C596.7 749.7 632.8 803.3 670.9 860C684.1 879.9 698.1 900.1 710.7 920.6C739.9 967.3 734.9 1000.4 725.6 1019.6C715.3 1040.8 694.5 1056 671.9 1058.7C669.2 1059 666.9 1059 664.3 1059C641.1 1059 624.5 1046.1 607 1032.5C596.1 1024.6 584.8 1015.9 571.6 1010C558 1003.7 542.1 1000.7 522.6 1000.7C486.5 1000.7 445.4 1011.3 412.6 1019.9C389.4 1025.9 369.2 1031.2 356.6 1031.2C350 1031.2 345.7 1029.5 343.7 1026.6C341 1022.3 343 1014.3 349.3 1003.1C364.5 975.6 391.7 951.1 417.5 927.3C438.7 907.8 458.9 889.2 472.8 869.7C501 829.6 517.8 783.9 521.2 737.5C524.9 684.5 511.3 634.2 480.8 587.8C469.9 571.2 449.7 557.3 430.1 544.1C393.7 519.3 359.2 495.4 384.7 457.3C397.6 437.8 409.5 430.5 423.1 422.2C431.7 416.9 441.6 410.9 452.9 401C462.5 392.4 470.4 384.1 478.1 375.8C497.6 354.9 513.2 338.4 545.3 338.4C550.3 338.4 555.9 338.7 561.5 339.7C639.7 350.6 726.1 369.2 828.8 429.5C963.6 508.7 1054.7 582.2 1092.8 705.8C1110.4 763.1 1103.7 826.7 1076.6 863.8Z" fill="white"/>
<path d="M657.9 882.1C625.4 843.7 593.3 802.6 577.7 762.9C577 760.9 575.7 755.3 574.4 748.3C569.4 724.8 560.8 685.4 548.6 685.4C547.6 685.4 546.3 685.7 545.3 686.4C540.3 689.4 538.7 695.3 540.7 704.6C542.4 712.2 546 720.8 549.3 728.4C552.9 736.4 555.9 743.6 555.9 747.6C555.9 757.9 550.9 762.2 546.3 766.8C542.7 770.1 539 773.8 537.7 779.7C536 787.7 539.4 793.6 542.3 799.2C545.3 804.5 548.3 809.8 547.3 817.1C545.7 830 504.6 876.7 468.5 917.8C438.7 951.9 412.8 981.4 413.2 987C413.2 987.3 413.5 987.7 413.5 988C415.8 990 420.5 991 427.4 991C438 991 452.9 988.7 470.1 985.7C491 982.4 514.8 978.4 535.4 978.4C551.3 978.4 563.6 980.7 572.2 985.4C576.8 988.1 582.1 991 587.8 994.3C612.6 1008.5 643.1 1026.4 669.3 1026.4C678.6 1026.7 686.8 1024.1 693.8 1019.1C702.4 1012.8 707.7 1003.9 709 992.9C712.8 960.6 684 912.9 657.9 882.1ZM707.9 992C706.6 1002.9 701.6 1011.6 693.3 1017.5C686.7 1022.5 678.4 1024.8 668.8 1024.8C643 1024.8 612.5 1006.9 588 992.7C582 990.4 576.7 987.4 572.1 984.7C563.1 980.1 551.2 977.7 535 977.7C514.5 977.7 490.6 981.3 469.7 985C452.5 987.6 437.6 990.3 427 990.3C420.4 990.3 416.1 989.3 413.8 987.3C413.8 987.3 413.8 987.3 413.8 987C413.5 981.7 440.3 951.2 468.8 918.4C504.9 877 546.3 830.3 548 817C549 809.7 546 804.1 543 798.5C539.7 792.5 536.7 787.2 538.4 779.6C539.7 773.6 543 770.7 546.7 767C551.3 762.4 556.3 757.7 556.6 747.1C556.6 742.8 553.6 735.8 550 727.6C546.7 720 543 711.4 541.4 704.1C539.4 695.5 540.7 689.9 545.4 686.9C546.4 686.2 547.4 685.9 548.4 685.9C560 685.9 568.6 726.3 573.2 748.2C574.9 755.5 575.9 760.8 576.9 762.8C592.8 802.6 624.9 843.6 657.4 882C683 912.5 711.9 959.9 707.9 992Z" fill="white"/>
<path d="M641.3 891.3C616.1 862.8 598.6 838.6 587 822.7C575.4 806.8 569.1 798.2 565.1 798.2C562.1 798.2 560.8 801.9 559.8 810.8C552.5 878.4 508.8 914.8 483 936.7C471.7 946.3 464.1 952.6 463.8 957.9C463.8 959.6 464.1 960.9 465.5 961.9C467.8 964.5 471.8 965.5 477.4 965.5C483.7 965.5 492 963.8 501.2 962.2C513.5 959.9 527.4 957.6 541.3 957.6C560.5 957.6 576.1 962.6 589 972.2C606.9 986.1 633.4 1001 654.3 1001C661.9 1001 668.2 999 673.5 995.4C678.1 991.1 681.5 985.1 682.1 977.9C685 950.6 655.9 907.6 641.3 891.3ZM680.7 977.5C680 984.8 676.7 990.4 671.8 994.1C667.2 997.7 660.9 999.7 653.6 999.7C633.1 999.7 606.9 984.8 589 971.2C576.1 961.3 560.2 956.3 541 956.3C526.8 956.3 512.8 958.9 500.6 960.9C491.3 962.6 483 964.2 476.7 964.2C471.4 964.2 467.7 963.2 465.4 960.9C464.4 959.9 464.1 958.9 464.1 957.6C464.4 953 472.1 946.3 483 937.1C509.2 915.2 552.9 878.5 560.2 810.6C561.2 802.6 562.5 799 564.5 799C568.1 799 574.8 808.3 585.7 823.2C597.3 839.1 614.8 863.6 640 891.8C654.5 907.9 683.7 950.6 680.7 977.5Z" fill="white"/>
<path d="M969.6 608.8C966.9 606.5 965 606.1 963.6 607.5C961.3 609.8 961.9 617.8 963.3 632.3C965 649.2 967.3 675 965.3 705.2C962 756.9 976.9 792.7 991.8 808.9C998.8 816.2 1006.4 820.2 1013 820.2C1022.6 820.2 1029.9 812.6 1033.5 799C1056 710.1 979.2 616.7 969.6 608.8ZM1031.9 798.2C1028.6 811.1 1022 818.4 1013 818.4C1006.7 818.4 999.4 814.4 992.8 807.5C977.9 791.6 963.3 756.5 966.6 705.1C968.6 674.6 966.3 649.1 965 631.9C964 619.6 963.3 610.4 965 608.7C965.3 608.4 965.3 608.4 965.7 608.4C966 608.4 967 608.7 968.7 610.1C977.9 617.7 1054.4 710.5 1031.9 798.2Z" fill="white"/>
<path d="M1369.1 122.5C1343.3 122.5 1314.4 127.5 1284 132.4C1247.6 138.7 1210.1 145 1169.4 145C1166.4 145 1163.4 145 1160.5 145C1158.2 145 1155.5 145 1153.2 144.7C1146.9 144.4 1141.3 144.4 1135.6 144.4C1100.5 144.4 1078.6 151.7 1064 189.5C1055.1 213.4 1044.5 240.5 1019.9 258.1C1012.9 263.1 1006 267.4 999.7 271C985.5 279.6 974.2 286.6 973.5 295.8C973.2 304.4 981.8 315 1002 329.6C1021.2 343.8 1037.1 350.5 1050.4 350.5C1051.7 350.5 1052.7 350.5 1054 350.5C1073.2 348.8 1086.5 332.6 1102.7 312.4C1110.3 303.1 1118.6 292.9 1128.5 282.9C1171.6 239.8 1224.2 208.4 1281.5 192.1C1305.7 185.5 1329.5 182.2 1352.4 182.2C1408.7 182.2 1452.1 202.7 1488.2 226.3V225C1452.1 201.5 1408.7 181.3 1352.4 181.3C1329.5 181.3 1305.7 184.9 1281.5 191.6C1224.2 207.8 1171.2 239.3 1128.1 282.7C1118.2 292.6 1109.5 303.2 1102.3 312.2C1086.1 332.4 1073.1 348 1054.3 350C1053.3 350 1052 350 1050.7 350C1037.5 350 1021.9 343 1003 329.1C983.1 314.5 974.5 304.6 974.8 296C975.1 287.1 986.4 280.4 1000.3 271.8C1006.6 268.2 1013.5 263.8 1020.5 258.9C1045.3 241.3 1055.9 213.8 1064.9 190C1079.1 152.6 1100.7 145.6 1135.5 145.6C1141.1 145.6 1147.1 145.6 1153.1 145.9C1155.4 145.9 1157.7 145.9 1160.4 146.2C1163.4 146.2 1166.4 146.2 1169.3 146.2C1210.4 146.2 1247.8 139.9 1284.3 133.6C1314.8 128.3 1343.3 123.7 1369.1 123.7C1384 123.7 1397.3 125.4 1409.2 128.7C1435 136 1461.2 147.9 1488.4 162.2V161.2C1461.2 147.3 1435.1 135.4 1409.6 128.1C1397.6 124.1 1384.3 122.5 1369.1 122.5Z" fill="white"/>
<path d="M1019.6 644.2C995.4 601.5 964.6 571 949.7 561.1C944.4 557.5 940.4 555.1 938.1 555.1C937.1 555.1 936.5 555.4 936.1 556.1C934.1 558.4 935.1 564.4 936.4 576.6C939.4 597.8 944.3 638.2 939.7 702.1C935.7 752.4 945.7 793.2 967.5 816.7C979.1 829 993 835.9 1006.9 835.9C1027.1 835.9 1043 822 1047.7 800.4C1061.7 737.6 1040.1 680.7 1019.6 644.2ZM1046.8 799.9C1042.2 821.1 1026.6 834.7 1006.7 834.7C992.8 834.7 979.2 828.1 967.9 815.8C946.4 792.3 936.4 751.9 940.1 702.2C945.1 638.3 939.8 597.9 937.1 576.3C936.1 565 935.4 558.4 936.8 556.4C937.1 556.1 937.5 555.7 938.1 555.7C940.1 555.7 944.1 558 949 561.3C982.5 583.9 1071.9 686 1046.8 799.9Z" fill="white"/>
<path d="M1037.8 630C1003.3 574.4 955.6 538.6 930.1 522C917.2 513.7 911.6 510.1 909.6 512.7C907.9 514.7 908.9 521 911.3 532.9C915.9 558.4 926.2 612.4 920.6 705.5C916.6 768.1 928.9 817.5 954.4 844.6C967.6 858.5 983.6 866.1 1000.8 866.1C1033.6 866.1 1061.4 839.6 1070 800.2C1082.5 741.9 1071.6 684.6 1037.8 630ZM1069.3 799.9C1060.7 839 1033.5 865.2 1001.1 865.2C984.2 865.2 968.3 857.9 955.4 844C929.9 817.2 918.3 767.8 921.9 705.5C927.5 612.4 917.3 558.4 912.3 532.3C910 521.4 908.6 514.7 910.3 513.1C910.6 512.8 911 512.8 911.6 512.8C914.3 512.8 920.2 516.4 929.8 522.7C1014.3 577.6 1095.5 679.3 1069.3 799.9Z" fill="white"/>
<path d="M625.1 427.2C624.8 425.5 623.1 424.9 613.2 424.2C583.7 422.2 518.1 450 510.5 471.2C508.8 476.2 510.2 480.5 514.1 484.1C525.4 493.4 533 497.3 539.3 497.3C548.6 497.3 555.5 488.4 562.5 474.8C575.1 451 601.3 439.7 615.5 433.4C622.8 430.5 625.4 429.2 625.1 427.2ZM614.5 431.2C600.3 437.5 573.4 449.1 560.5 473.6C552.2 488.8 546.3 495.1 539.3 495.1C533.3 495.1 526.4 491.1 515.4 482.2C512.1 479.6 511.1 476.2 512.4 472.3C519.4 453.1 580.6 426.6 609.8 426.6H612.8C618.4 426.9 621.1 427.3 622.1 427.6C620.8 428.6 617.5 429.9 614.5 431.2Z" fill="white"/>
<path d="M668.5 429.9C667.8 423.3 636.4 410.4 589.7 410.4C584.4 410.4 579.1 410.4 573.8 410.7C552.6 412 502.3 441.8 484 463.7C479.4 469.3 477 474.3 477.7 477.9C479 487.2 487 491.1 496.6 495.8C506.5 500.8 517.8 506.4 523.4 519.6C526.7 527.2 530.7 531.2 536 531.2C544.9 530.9 555.5 519.3 568.1 496.4C590.6 455.3 632 441.1 665.2 433.1C668.5 432.5 668.8 430.9 668.5 429.9ZM665.2 431.9C631.4 439.9 589.7 454.4 566.8 496.2C547.6 530.3 533.3 538.6 525.1 519.1C519.5 505.5 507.9 499.6 497.6 494.6C488.7 490 480.7 486.3 479.7 478C479.4 475 481.3 470.4 485.7 465.1C503.6 443.2 553.3 414.1 574.2 412.8C579.5 412.5 584.8 412.5 590.1 412.5C635.8 412.5 666.6 425.1 667.3 430.4C667.1 431.2 665.8 431.5 665.2 431.9Z" fill="white"/>
<path d="M997.7 697.2C995.4 693.9 992.4 694.2 989.7 698.5C983.4 709.4 980.4 744.9 998 775.4C1000 778.7 1002 780.4 1004 780.4C1005.7 780.4 1007.3 779.1 1008.6 776.7C1015 764.5 1015 722.7 997.7 697.2ZM1006 776.1C1005.3 777.8 1004.3 778.4 1003.3 778.4C1002.3 778.4 1001 777.1 999.7 774.7C983.5 744.9 985.8 710.1 991.8 699.8C992.8 698.5 993.4 697.5 994.1 697.5C994.8 697.5 995.4 698.2 995.4 698.8C1011.7 723.4 1012.3 764.5 1006 776.1Z" fill="white"/>
<path d="M1219.3 882.1C1221.6 885.4 1227.6 887.1 1238.5 887.1C1245.5 887.1 1253.7 886.4 1263.3 885.8C1275.2 885.1 1288.8 884.1 1302.7 884.1C1347.1 884.1 1376.9 893.4 1396.8 913.9C1415.3 928.1 1425.6 951.3 1434.6 971.9C1445.5 996.7 1455.1 1018.3 1476 1018.3C1478.3 1018.3 1480.6 1018 1483 1017.6C1484.6 1017.3 1486.3 1016.9 1488 1016.3V1014.7C1486 1015.4 1484.3 1015.7 1482.7 1016C1480.4 1016.3 1478.1 1016.7 1476.1 1016.7C1456.2 1016.7 1447 995.5 1436.3 971.3C1427.4 950.8 1416.8 927.2 1398.2 912.7C1378 892.2 1347.9 882.6 1303.1 882.6C1289.2 882.6 1275.6 883.6 1263.7 884.3C1254.1 885 1245.8 885.6 1238.9 885.6C1228.6 885.6 1223 884.3 1221 881.3C1220 879.6 1220 877.7 1221 875C1242.2 818.7 1259.8 747.5 1258.1 725.3C1255.1 686.9 1238.2 650.4 1222 615.3C1202.1 572.2 1183.2 531.8 1195.2 498C1211.8 451 1288 369.1 1329.4 363.5C1331.4 363.2 1333.7 363.2 1336 363.2C1368.1 363.2 1424.8 386.1 1489 424.2V422.2C1425.1 384.4 1368.4 361.6 1336 361.6C1333.7 361.6 1331.4 361.6 1329 361.9C1287.3 367.5 1210.4 450 1193.5 497.4C1181.2 531.9 1200.4 572.9 1220.3 616C1236.5 651.1 1253.4 687.2 1256.4 725.3C1258.1 744.5 1242.2 813.7 1219.6 874.4C1218 877.4 1218 880.1 1219.3 882.1Z" fill="white"/>
<path d="M835.7 -2.44156e-05C830.6 5.19998 824.8 9.99998 818.2 13.8C810.9 18.1 803 20.4 794.3 21.1C786.7 21.4 778.1 21.8 769.1 23.1C763.8 23.8 757.8 25.1 751.9 26.4C745.9 27.7 740.6 28.4 736.3 28.4C728.7 28.4 723.4 26.4 719.7 22.4C715.9 17.8 714.6 10.6 715.7 -2.44156e-05H716.7C715.6 10.2 716.9 17.2 720.4 21.4C723.4 25 728.7 27 736 27C740.3 27 745.6 26.3 751.6 25C757.9 23.7 763.5 22.3 768.8 21.7C777.7 20.7 786.3 20 794 19.7C802.6 19.4 810.2 17 817.5 12.7C823.7 9.09998 829.1 4.69998 833.9 -0.100024H835.7V-2.44156e-05Z" fill="white"/>
<path d="M1369.1 145.3C1345.3 145.3 1317.4 149.9 1287.9 154.9C1250.8 161.2 1212 167.8 1169.3 167.8C1166.3 167.8 1163 167.8 1160 167.8L1152.7 167.5C1146.7 167.5 1141.1 167.2 1135.8 167.2C1089.4 167.2 1087.1 192.7 1084.8 219.9C1083.5 234.8 1082.1 250 1073.9 263C1070.9 267.6 1063.3 273.6 1055 279.9C1037.4 293.1 1017.2 308.1 1026.8 322.3C1030.8 328.3 1035.7 331.6 1041.7 331.6C1044.7 331.6 1048.3 330.6 1051.6 329C1067.2 321 1084.1 296.9 1097.3 277.7C1104.9 266.8 1111.5 257.5 1115.2 255.2C1118.8 252.9 1123.2 252.6 1126.8 252.6C1128.1 252.6 1129.8 252.6 1131.1 252.6C1132.4 252.6 1134.1 252.6 1135.4 252.6C1140.7 252.6 1146.7 251.9 1152 247.3C1158.3 241.7 1159 234.1 1160 227.1C1160.7 220.8 1161.3 214.5 1165.6 209.5C1178.5 193.9 1223.9 183.3 1253.7 176C1262.6 174 1270.3 172 1275.9 170.4C1302.1 162.8 1327.9 159.1 1352.7 159.1C1408 159.1 1452.4 177.3 1488.5 198.9V196.9C1452.4 175.4 1408 157.1 1352.7 157.1C1327.5 157.1 1301.7 161.1 1275.2 168.4C1269.6 170.1 1262 171.7 1253 174C1220.9 181.6 1177.1 191.9 1163.9 207.8C1159.3 213.4 1158.6 220.1 1157.9 226.4C1157.2 233.7 1156.6 240.3 1150.6 245.6C1146 249.9 1140.3 250.6 1135.4 250.6C1134.1 250.6 1132.4 250.6 1131.1 250.6C1129.8 250.6 1128.1 250.6 1126.8 250.6C1122.8 250.6 1118.5 250.9 1114.2 253.2C1110.2 255.5 1103.9 264.8 1096 276.1C1083.4 294.3 1066.2 318.8 1050.6 326.8C1041.3 331.8 1034 329.8 1028.1 320.8C1019.5 307.9 1038.7 293.6 1055.9 280.7C1064.8 274.1 1072.1 268.4 1075.4 263.5C1083.7 250.3 1085 234.7 1086.7 219.8C1089 192.3 1091.3 168.8 1136.1 168.8C1141.4 168.8 1147 168.8 1153 169.1L1160.3 169.4C1163.3 169.4 1166.6 169.4 1169.6 169.4C1212.7 169.4 1251.1 162.8 1288.5 156.5C1318 151.5 1345.5 146.9 1369.3 146.9C1381.9 146.9 1393.1 148.2 1402.8 151.2C1429.6 159.2 1458.5 173.1 1488.3 189V187C1458.5 171.4 1430.3 157.5 1403.2 149.9C1393.3 147 1382 145.3 1369.1 145.3Z" fill="white"/>
<path d="M767.8 -2.44156e-05C767.2 0.0999756 766.5 0.199976 765.9 0.199976C763.6 0.499976 761.3 0.899976 758.9 0.899976C755.9 0.899976 753.4 0.599976 751.2 -2.44156e-05H767.8Z" fill="white"/>
<path d="M1269.4 839C1275.7 847.9 1288.6 848.9 1306.5 850.3C1308.5 850.3 1310.5 850.6 1312.5 850.6C1318.1 850.9 1324.1 851.3 1330.4 851.6C1359.6 852.6 1393 853.6 1422.8 881.1L1423.1 881.4C1439.7 896 1449.6 921.5 1458.2 944.3C1467.1 967.2 1474.4 986.7 1486.7 986.7C1487 986.7 1487.4 986.7 1487.7 986.7V985.7C1487.4 985.7 1487 985.7 1486.7 985.7C1475.4 985.7 1467.8 966.2 1459.2 944C1450.6 921.1 1440.6 895.6 1423.8 880.7L1423.5 880.4C1393.3 852.9 1359.9 851.6 1330.4 850.6C1324.1 850.3 1318.2 850.3 1312.5 849.6C1310.5 849.3 1308.5 849.3 1306.5 849.3C1288.6 848 1276 847 1270.1 838.4C1264.5 830.4 1265.5 815.2 1272.8 789.7C1279.8 765.8 1282.1 744.3 1280.4 723.4C1277.1 680.7 1259.2 642.6 1242 605.5C1224.1 566.7 1207.2 530.3 1215.8 505.5C1230.7 463.8 1301.9 390.2 1331.4 386.2C1332.1 386.2 1333.1 385.9 1335 385.9C1359.9 385.9 1415.5 406.4 1488 450.8V449.5C1415.8 405.1 1359.8 384.9 1335 384.9C1333.3 384.9 1332 384.9 1331.4 385.2C1301.6 389.2 1229.7 463.4 1214.8 505.1C1205.9 530.6 1222.8 567 1241 606.1C1258.2 642.9 1275.8 681.3 1279.1 723.7C1280.8 744.6 1278.1 766.1 1271.5 789.6C1264.4 815.8 1263.7 830.4 1269.4 839Z" fill="white"/>
<path d="M1167.3 710.5C1151.1 655.5 1119.3 602.5 1069.9 547.9C996.7 466.7 897 396.9 764.8 334.6L759.2 332C703.6 305.8 646.2 278.7 586 263.8C582.4 262.8 578.4 261.8 574.1 260.8C555.6 255.8 532 249.5 512.1 249.5C504.1 249.5 497.2 250.5 491.6 252.5C483 255.5 478 261.4 473.4 267.1C469.8 271.4 466.5 275.7 461.2 279C457.9 281 451.3 283.6 444.3 286.3C433 290.6 421.4 295.3 417.8 299.2C410.8 307.5 412.8 312.4 414.5 317.4C415.8 320.7 417.1 324 415.5 329L414.2 333C404.3 362.5 404.3 362.5 381.1 369.1C376.8 370.4 371.2 372.1 364.5 374.1C345.3 380.1 337.7 389.7 330 398.6C324 405.6 318.7 412.2 308.5 417.5H307.5C295.6 417.5 205.1 423.5 198.2 445.7C196.2 451.7 200.5 458.3 210.1 464.9C222.4 473.5 232 474.5 237.9 474.5C240.9 474.5 243.5 474.2 245.9 473.8C248.2 473.5 250.2 473.5 252.2 473.5C259.5 473.5 266.8 475.5 277 500.3C279.3 506.3 281.3 511.6 283 515.5C291 536 291 536.4 310.8 544.7C315.8 546.7 321.7 549.3 329.7 553C355.2 564.9 360.5 578.2 367.1 595.1C370.7 604 374.7 614.3 382 625.6C390 637.8 399.5 647.8 408.5 657.1C424.7 674 440 689.9 444.9 716.4C453.2 762.5 428.3 806.5 400.2 847.3C386.6 867.2 358.5 890 328.3 914.2C277.6 955.6 220.3 1002.3 220 1045.7C220 1054.7 220.8 1062.9 222.5 1070.3H225.5C223.8 1063 223 1054.9 223 1046C223.3 1003.6 280.3 957.2 330.3 916.5C360.1 892 388.6 869.1 402.5 848.9C431 807.8 456.2 763.4 447.9 716.4C442.9 689.2 427.4 673 410.8 655.8C401.8 646.5 392.3 636.6 384.3 624.7C377 613.4 373 603.5 369.4 594.6C362.4 577 357.1 563.5 330.6 551.2C322.6 547.6 316.7 544.9 311.7 542.9C292.5 534.6 292.5 534.6 284.9 515.1C283.2 510.8 281.2 505.8 278.9 499.9C269.3 476 261.7 471.4 252.1 471.4C250.1 471.4 247.8 471.7 245.8 471.7C243.1 472 240.8 472 237.8 472C231.5 472 223.2 471 211.3 462.7C202.3 456.4 198.7 450.8 200 445.8C206 426.6 290.4 419.3 307 419.3C307.3 419.3 307.7 419.3 307.7 419.3L308 418.3L308.7 419.3C319.6 413.7 325.6 406.7 331.6 399.8C339.2 390.5 346.5 381.9 365.1 375.9C371.7 373.9 377.4 372.3 381.7 370.9C405.9 363.9 406.2 363.6 416.5 333.1L417.8 329.1C419.8 323.5 418.1 319.5 416.8 315.9C415.1 311.3 413.5 307.3 419.8 300.3C423.1 296.3 435 292 445.3 288C452.3 285.3 458.9 282.7 462.5 280.7C468.1 277.4 471.8 272.7 475.4 268.5C480 262.9 484.7 257.6 492.6 254.6C497.9 252.6 504.5 251.6 512.5 251.6C532 251.6 555.2 257.9 573.8 262.5C578.1 263.5 582.1 264.8 585.7 265.5C646 280.4 703.3 307.6 758.6 333.7L764.2 336.4C896 398.4 995.4 468 1068.3 548.8C1117.3 603.1 1149.1 656.1 1165 710.5C1183.9 774.4 1170.3 852.6 1131.2 905C1111 932.2 1074.9 964.3 1018.6 964.3C1004 964.3 988.8 962 973.6 957.7C839.4 918.9 843.7 786.4 858.3 665.5C862.6 629.4 856 599.9 838.7 580.4C824.1 563.8 801.9 554.9 776.8 554.9C730.1 554.9 670.5 587 651.9 646.7C630.7 714.9 676.1 773.2 719.8 829.6C766.5 889.6 814.5 951.8 787.7 1028.4C783 1041.7 774.5 1056.2 763.5 1070.2H766.2C776.6 1056.6 784.8 1042.6 789.4 1029.7C816.9 951.9 768.2 889.3 721.2 828.6C675.8 770.3 633.1 715 654 647.7C672.2 589.1 730.8 557.6 776.9 557.6C801.7 557.6 822.9 566.5 837.2 582.4C854.1 601.3 860.7 630.1 856.4 665.5C841.5 787.4 837.2 920.9 973.3 960.3C988.9 964.9 1004.4 967.3 1019 967.3C1076.3 967.3 1112.7 934.5 1133.3 907C1172.7 854.2 1186.2 775.1 1167.3 710.5Z" fill="white"/>
<path d="M862.1 -2.44156e-05C861 2.89998 859.9 5.69998 858.9 8.49998C853.9 21.4 847.3 30.4 837.7 35.7C826.1 42.3 811.2 43 795.6 44C788.3 44.3 780.4 45 772.4 46C768.1 46.7 762.8 47.7 757.2 49C746.3 51.7 733.7 54.3 722.4 54.3C711.1 54.3 703.2 51.7 697.9 45.4C688.7 35.4 689.6 16.2 692 0.0999756H693C690.5 16.1 689.4 35.3 698.5 45.1C703.8 50.7 711.4 53.4 722.4 53.4C733.7 53.4 745.9 50.4 756.8 48.1C762.4 46.8 767.7 45.8 772 45.1C780.3 44.1 787.9 43.4 795.5 43.1C811.1 42.1 825.7 41.4 837.2 34.8C846.5 29.5 853.1 20.9 857.7 8.29998C858.7 5.59998 859.7 2.89998 860.8 0.0999756H862.1V-2.44156e-05Z" fill="white"/>
<path d="M918.6 85.7C919.9 103.6 917.6 115.5 911.6 122.1C907.6 126.7 902 128.7 894.7 128.7C885.1 128.7 872.8 125.1 860.3 121.1C849 117.8 837.1 114.1 826.2 112.8C817.9 111.8 809.6 111.5 800.7 111.5C772.5 111.5 746 116.1 717.9 120.8C713.3 121.5 708.3 122.5 703.7 123.1H703.4C693.5 124.4 681.9 126.4 670.9 126.4C649.4 126.4 635.8 119.4 628.8 104.5C614.9 74.7 618.9 38.9 622.2 7.39998C622.4 4.89998 622.7 2.29998 623 -0.100024H624.7C624.4 2.39998 624.1 4.79998 623.9 7.39998C620.6 38.5 616.9 74 630.5 103.5C637.1 117.4 650.4 124.4 670.9 124.4C681.8 124.4 693.1 122.7 703 121.1H703.3C707.9 120.4 712.9 119.4 717.5 118.8C745.7 113.8 772.2 109.5 800.3 109.5C808.9 109.5 817.5 109.8 825.8 110.8C837.1 111.8 849 115.4 860.3 119.1C872.9 123.1 884.8 126.7 894.4 126.7C901.4 126.7 906.3 124.7 910 120.7C915.6 114.4 917.9 102.8 916.6 85.6C914.7 57.7 920.4 29.3 933.7 -0.100024H935.7C922.1 29.4 916.5 57.8 918.6 85.7Z" fill="white"/>
<path d="M968.3 184.8C957 192.7 941.8 196.7 921.3 196.7C897.5 196.7 870.6 191.4 846.8 186.8C832.9 184.1 819.6 181.5 809 180.2C803.7 179.5 789.5 178.2 772.2 178.2C740.1 178.2 698.7 182.5 684.7 203.4C678.7 212.3 678.4 223.9 684 237.2C686.7 243.5 693.3 246.8 699.9 250.1C705.2 252.8 710.5 255.4 713.5 259.4C717.1 264 719.1 271 721.1 277.3C723.8 285.9 726.4 294.9 732.7 300.2C740.3 306.8 748.9 309.8 759.5 309.8C766.8 309.8 774.4 308.5 781.7 306.8C789 305.5 796.3 303.8 803.2 303.8C810.2 303.8 816.1 305.1 821.4 308.1C834.6 314.7 840 324 845.6 332.9C852.6 344.5 859.2 355.4 881 360.4C926.4 371 939 382.3 969.1 409.1C973.1 412.4 977.1 416.4 981.7 420.4C992.6 430 1000.6 440.9 1008.2 451.2C1015.2 460.5 1022.1 470.4 1031.4 479C1042.7 489.9 1053.3 494.6 1063.5 499.5C1077.1 505.8 1090.3 511.8 1101.9 532L1103.9 535.3C1118.8 560.8 1133.7 584.7 1143 584.7C1144.3 584.7 1145.7 584 1146.7 583C1150 579.4 1151 569.7 1149.3 553.5C1148.3 543.9 1141.7 535.6 1135.1 527.3C1127.8 518.4 1121.2 510.1 1121.5 500.8C1121.8 489.9 1128.8 484.2 1135.7 478.6C1141 474.3 1146.3 470 1149.3 463.4C1156.9 447.2 1158.6 432.6 1160.6 418.3C1162.9 398.8 1165.2 380.2 1182.8 359.3C1214.3 321.9 1258.3 293.4 1306.7 279.5C1322.9 274.9 1337.8 272.5 1352.4 272.5C1402.1 272.5 1437.5 299.3 1475.3 328.2C1479.6 331.5 1483.9 334.8 1488.2 337.8V334.5C1484.2 331.5 1480.6 328.5 1476.6 325.9C1438.5 297.1 1402.7 269.9 1352.4 269.9C1337.5 269.9 1322.2 272.2 1306 276.9C1257 290.8 1212.6 319.6 1180.8 357.4C1162.9 378.9 1160.6 397.8 1157.9 417.7C1156.2 431.6 1154.3 445.9 1147 461.8C1144 468.1 1139 472.4 1134.1 476.4C1126.8 482.4 1119.5 488.3 1118.9 500.3C1118.6 510.6 1125.9 519.5 1132.8 528.5C1139.1 536.5 1145.7 544.7 1146.7 553.3C1148.3 572.5 1146.4 578.8 1144.7 581.1C1144 581.8 1143.4 582.1 1142.7 582.1C1133.4 582.1 1114.2 548.3 1105.6 534.1L1103.6 530.8C1091.4 509.9 1078.1 504 1064.2 497.7C1053.9 493.1 1043.7 488.4 1032.7 477.8C1023.8 469.2 1016.5 459.6 1009.9 450.3C1001.9 439.7 994 428.8 983.1 419.2C978.5 415.2 974.5 411.6 970.5 407.9C940 380.7 927.4 369.5 881.4 358.9C860.5 353.9 854.2 343.7 847.6 332.4C842 323.1 836.3 313.8 822.8 306.9C817.2 303.9 810.9 302.6 803.6 302.6C796.3 302.6 788.7 303.9 781.4 305.6C774.1 306.9 766.8 308.6 759.9 308.6C750 308.6 742 305.6 734.4 299.7C728.8 294.7 726.1 286.5 723.5 277.8C721.5 271.2 719.2 264.2 715.5 259.3C712.2 254.7 706.6 252 701.3 249.4C695 246.1 688.7 243.1 686.4 237.5C681.1 224.9 681.4 214.3 687.1 205.7C700.3 185.8 741.1 181.5 772.9 181.5C790.1 181.5 804.4 182.8 809.3 183.5C819.9 184.5 833.2 187.1 847.1 190.1C871 194.7 897.8 200.4 922 200.4C942.9 200.4 958.8 196.4 970.4 188.1C999.6 167.6 990.9 136.8 983 106.9C974.4 75.1 965.4 42 1001.2 20.4C1005.5 17.7 1011.1 16.4 1018.1 16.4C1039.3 16.4 1069.4 28 1098.6 39.3C1123.8 49.2 1148 58.5 1163.5 58.8C1165.8 58.8 1168.1 58.8 1170.1 58.8C1203.6 58.8 1237.3 53.2 1270.2 47.5C1303 41.9 1336.8 36.2 1369.9 36.2C1393.1 36.2 1414.3 38.9 1434.2 44.8C1452.8 50.1 1471 57.1 1488.9 65V62.3C1471 54.3 1453.1 47.7 1434.9 42.4C1414.7 36.8 1393.5 33.8 1370 33.8C1336.6 33.8 1302.8 39.4 1270 45.1C1237.5 50.7 1203.8 56.4 1170.3 56.4C1168 56.4 1166 56.4 1163.7 56.4C1148.5 56.1 1124.9 46.8 1099.8 37.2C1070.6 25.9 1040.2 14 1018.3 14C1010.7 14 1004.7 15.3 1000.1 18.3C963 40.8 971.9 74.6 980.9 107.4C988.1 136.4 995.8 165.2 968.3 184.8Z" fill="white"/>
<path d="M645.9 60.2C647.4 70.4 649.9 78.2 653.2 83.9C649.5 77.9 646.8 70 644.9 60.2C641.9 39.7 642.7 18.4 644.7 -2.44156e-05H645.6C643.6 18.5 642.9 39.8 645.9 60.2Z" fill="white"/>
<path d="M664.8 95.5C660.5 93.2 656.7 89.7 653.6 84.5C656.7 89.3 660.4 92.9 664.8 95.5Z" fill="white"/>
<path d="M910 -2.44156e-05C903.6 16.1 898.9 32.4 895.7 49.6C892.4 67.5 887.4 77.8 879.1 83.4C872.1 88 862.9 90 846.6 90H837.7C828.1 89.7 819.2 89.7 810.2 89.7C775.4 89.7 744.6 92 713.8 97.3C701.5 99.3 693.3 100.3 686.3 100.3C677.7 100.3 670.6 98.8 664.9 95.5C670.8 98.6 677.7 99.6 685.3 99.6C692.6 99.6 700.5 98.6 712.8 96.6C743.6 91.3 774.4 89 809.5 89C818.1 89 827.1 89 837 89.3H845.9C861.8 89.3 871.4 87.3 878 82.7C886.3 77.1 890.9 67.1 894.2 49.6C897.4 32.4 902.1 16.1 908.5 -2.44156e-05H910Z" fill="white"/>
<path d="M886.5 -2.44156e-05C882.8 9.99998 879.5 20.4 876.5 31.1C872.8 44.7 867.2 53.6 859.3 59.3C849.7 65.9 837.4 66.9 825.5 66.9C821.9 66.9 817.9 66.6 813.6 66.6C807.3 66.6 801 66.3 794.1 66.6C764.9 67.3 736.5 69.9 710.3 74.2C707 74.9 703.3 75.2 700.4 75.2C689.8 75.2 681.5 71.9 676.5 64.9C664.6 50.4 666 22.9 669.5 0.0999756H670.1C666.7 22.8 665.2 49.7 676.8 63.9C683.8 72.2 695 75.5 710.3 72.8C736.5 68.5 764.9 65.9 794.1 65.2C800.7 64.9 807.3 65.2 813.6 65.2C817.6 65.5 821.6 65.5 825.5 65.5C837.1 65.5 849.4 64.8 858.6 58.2C866.6 52.9 871.8 44 875.5 30.7C878.3 20.1 881.5 9.89998 885.1 -2.44156e-05H886.5Z" fill="white"/>
<path d="M1500.3 900.6C1504.9 798.6 1570.2 724 1622.5 664.1L1626.1 659.8C1632.1 653.5 1646.3 636.3 1645 615.7C1644.3 603.1 1638 591.8 1626.4 581.9C1619.5 575.9 1613.2 570.3 1606.9 565.3C1579.7 542.1 1558.5 523.6 1525.4 500.7C1513.1 492.4 1501.2 484.5 1489.6 476.8V478.1C1501.2 485.4 1512.8 493.3 1524.7 501.6C1557.8 524.5 1579.4 543 1606.2 566.2C1612.2 571.5 1618.8 577.1 1625.7 582.8C1637 592.4 1643.3 603.7 1643.9 615.9C1644.9 636.1 1631.3 653 1625 659.3L1621.3 663.6C1569 723.6 1503.7 798.1 1498.7 900.8C1498 911.7 1494.1 918.4 1489.1 920.7V922C1495 919.5 1499.6 912.9 1500.3 900.6Z" fill="white"/>
<path d="M1523.4 901.6C1527.7 807.5 1590 736.3 1640 679.3L1643.6 675C1654.2 663.1 1662.5 652.5 1668.8 643.5C1676.4 632.2 1691 611.7 1656.9 578.6C1620.1 543.2 1580.4 510.4 1538.6 481.5C1521.7 469.6 1505.1 459 1489.6 449.7V451C1505.2 460.6 1521.1 470.9 1538 482.5C1579.7 511.3 1619.5 544.1 1656.3 579.6C1689.8 612.1 1675.8 632.3 1668.2 643.2C1661.9 652.1 1653.6 662.7 1643 674.7L1639.3 679C1589 736 1526.7 807.2 1522.4 901.6C1520.4 945.3 1512.5 970.8 1497.9 981.8C1494.9 984.1 1492.3 985.1 1489.6 985.4V986.4C1492.3 986.1 1495.2 985.1 1498.5 982.4C1513.5 971.5 1521.5 945.7 1523.4 901.6Z" fill="white"/>
<path d="M1920 216.8V220.3C1904.1 203.6 1857.6 197.3 1808.7 191C1794.1 189 1778.6 187 1763.7 184.7C1697.4 174.1 1636.8 141 1578.2 108.8C1549.4 92.9 1519.9 76.7 1489.7 63.4V60.7C1520.2 74.3 1550 90.5 1579.1 106.7C1637.7 138.8 1698 172 1763.9 182.2C1778.8 184.5 1794 186.5 1809 188.5C1858.5 195.2 1902.4 200.9 1920 216.8Z" fill="white"/>
<path d="M1920 251.7V256.3C1909 272.8 1886.9 292.9 1852.7 317.9C1775.5 373.6 1710.9 399.4 1649 399.4C1613.6 399.4 1578.8 390.4 1545 373.2C1524.8 362.9 1506.9 350.3 1489.7 337.4V334.4C1507.3 347.6 1525.5 360.6 1546 371.2C1579.1 388.4 1613.9 397 1648.7 397C1710.3 397 1774.6 371.2 1851.1 315.8C1887.2 289.7 1910 268.4 1920 251.7Z" fill="white"/>
<path d="M1498.3 751.5C1507.2 735.9 1518.8 721.7 1530.1 707.8C1546.3 687.9 1562.9 667.4 1571.8 642.2C1587.7 597.8 1556.6 577.3 1523.8 555.4C1520.8 553.4 1517.8 551.4 1514.5 549.4C1509.2 545.8 1503.9 542.1 1498.9 538.8C1496.6 537.1 1493.3 534.8 1489.6 532.2V533.5C1493.3 536.2 1495.9 538.1 1498.2 539.8C1503.2 543.4 1508.5 546.8 1513.8 550.4C1516.8 552.4 1519.8 554.4 1523.1 556.4C1555.6 577.9 1586.4 598.5 1570.8 642.2C1561.9 667.4 1545.3 687.9 1529.1 707.5C1517.8 721.4 1506.3 735.7 1497.3 751.2C1494.6 755.8 1492 762.1 1489.7 768.4V771.1C1490 770.4 1490.4 769.8 1490.4 769.1C1493 762.5 1495.6 756.5 1498.3 751.5Z" fill="white"/>
<path d="M1579.1 678.7C1580.4 677 1582.1 675.1 1583.7 673.4C1604.9 648.2 1627.1 622.4 1601.9 591.2C1582.4 567.3 1553.2 547.5 1527.4 529.9C1522.1 526.3 1517.1 522.9 1512.2 519.3C1508.9 517 1504.3 513.7 1499 509.7C1496.4 508 1493 505.7 1489.7 503.4V504.7C1492.7 507 1495.7 509 1498.6 511C1503.9 515 1508.2 518.3 1511.8 520.6C1516.8 523.9 1521.7 527.6 1527 531.2C1552.8 548.8 1582 568.3 1601.2 592.2C1625.7 622.7 1603.8 648.2 1583 673C1581.3 674.7 1580 676.6 1578.4 678.3C1559.9 700.5 1536.3 730 1517.5 762.8C1506.2 782.7 1496.6 803.9 1489.7 825.4V828.7C1497 806.2 1506.6 784.3 1518.5 763.4C1537 730.3 1560.6 700.9 1579.1 678.7Z" fill="white"/>
<path d="M1560.2 343.4C1585.4 356.3 1606.9 362.3 1627.4 362.3C1649.3 362.3 1668.5 355.7 1690.7 348.1C1703.3 343.8 1717.9 338.8 1734.1 334.9C1742.4 332.9 1749.7 332.6 1754.3 332.6C1757.6 332.6 1760.6 332.6 1763.6 332.9C1766.3 332.9 1768.9 333.2 1771.6 333.2C1785.2 333.2 1795.8 329.9 1807.4 314.3C1815.4 303.7 1818.3 295.4 1821 288.1C1825 277.2 1828 268.6 1845.2 256.3C1849.5 253 1855.8 250.7 1862.1 248.3C1872 244.3 1880.3 241 1880.7 235.4C1881 230.8 1875.7 225.8 1863.8 219.2C1849.9 211.6 1829.7 210.6 1811.8 210.6C1803.8 210.6 1795.6 210.9 1787.6 210.9C1779.7 211.2 1771 211.2 1763.1 211.2C1745.2 211.2 1732.6 209.9 1722.7 207.2C1665.1 192 1611.1 162.1 1563.4 136C1538.6 122.4 1514 109.2 1489.9 97.6V99.6C1513.7 110.9 1537.9 124.1 1562.8 137.7C1610.5 163.9 1664.8 193.7 1722.5 209.3C1732.8 211.9 1745.4 213.3 1763.6 213.3C1771.5 213.3 1780.2 213 1788.1 213C1796 212.7 1804.3 212.7 1812.3 212.7C1829.9 212.7 1849.7 213.7 1863.3 221.3C1874.2 227.3 1879.5 231.9 1879.2 235.9C1878.9 240.5 1870.6 243.9 1861.6 247.2C1855.3 249.5 1849 252.2 1844.4 255.5C1826.8 268.1 1823.5 277.4 1819.6 288C1816.9 295.3 1814 303.2 1806.4 313.8C1795.1 329 1784.9 332 1771.9 332C1769.3 332 1766.6 332 1763.9 331.7C1760.9 331.7 1757.9 331.4 1754.6 331.4C1750 331.4 1742.3 331.7 1734.1 333.7C1717.9 337.7 1703.3 342.6 1690.7 347C1668.5 354.6 1649.3 360.9 1627.8 360.9C1607.3 360.9 1586.1 354.9 1561.2 342C1538.4 330.4 1517.8 314.8 1497.9 299.6C1495.2 297.6 1492.3 295.3 1489.6 293.3V295.3C1491.9 297.3 1494.6 298.9 1496.9 300.9C1516.8 316.3 1537.4 331.8 1560.2 343.4Z" fill="white"/>
<path d="M1575.5 313.6C1600 326.2 1623.9 332.2 1649 332.2C1662.9 332.2 1693.1 326.6 1719.2 317C1742 308.7 1769.5 294.8 1769.5 276.3C1769.5 254.4 1727.1 242.2 1701.9 234.9C1696.3 233.2 1691.6 231.9 1688.3 230.9C1642.9 214.3 1597.9 193.8 1546.8 165.6C1527.3 155 1508.4 144.4 1489.5 135.1V136.1C1508 145.4 1527.3 156 1546.5 166.6C1597.8 194.4 1642.9 215.3 1688.3 231.9C1691.6 233.2 1696.2 234.6 1701.9 235.9C1727.1 243.2 1768.8 255.1 1768.8 276.3C1768.8 308.4 1678 331.3 1648.9 331.3C1624.1 331.3 1600.2 325.3 1576 312.7C1555.8 302.4 1536.6 287.5 1517.7 273.6C1508.8 266.6 1499.5 259.7 1489.5 252.7V254C1499.1 260.6 1508 267.6 1517 274.2C1536 288.4 1555.2 303.4 1575.5 313.6Z" fill="white"/>
<path d="M1586.1 293.1C1607.3 304 1627.8 309.3 1649 309.3C1667.2 309.3 1691.4 304 1700.7 291.7C1704.7 286.4 1706 280.4 1704 273.5C1699.7 257.6 1666.2 246 1641.7 237.7C1633.8 235.1 1626.8 232.7 1622.8 230.7C1594.3 217.4 1566.5 202.2 1539.3 187.3L1536.3 185.6C1520.1 177 1504.8 168.7 1489.6 160.8V161.8C1504.5 169.4 1519.8 178 1535.3 186.3L1538.3 188C1565.5 203.2 1593.6 218.5 1622.1 231.7C1626.4 233.7 1633.4 236 1641.3 238.7C1664.2 246.3 1698.9 258.2 1702.9 273.8C1704.6 280.4 1703.6 286.1 1699.6 291C1690.7 302.6 1666.8 307.9 1648.6 307.9C1627.7 307.9 1607.2 302.6 1586.3 292C1567.7 282.4 1549.2 268.5 1531.3 254.9C1518.4 245 1504.5 234.7 1489.2 224.8V226.1C1504.1 236 1518 246.3 1530.6 255.9C1549 269.6 1567.5 283.5 1586.1 293.1Z" fill="white"/>
<path d="M1837.5 708.5C1834.9 705.2 1831.2 703.5 1826.9 703.5C1817.6 704.2 1809.3 718.1 1803.1 728.3C1801.4 731 1799.8 733.6 1798.5 735.6C1781.6 759.1 1762.1 780.3 1739.5 803.2C1736.5 806.2 1733.5 809.5 1730.2 812.5C1711.7 831 1692.8 850.3 1681.2 873.1C1676.9 882 1675.6 888.7 1677.2 893C1678.2 895 1679.5 896.3 1681.5 896.7C1682.5 897 1683.2 897 1684.2 897C1688.2 897 1693.8 895 1699.8 891.4C1712.1 884.1 1723.7 874.8 1734.9 865.9C1744.2 858.6 1753.8 851 1763.4 844.7C1803.2 818.5 1829.3 801 1841.6 751.9C1844.1 741.6 1845.4 718.4 1837.5 708.5ZM1841.1 751.9C1828.8 800.6 1803 817.8 1763.3 844C1753.4 850.6 1743.8 857.9 1734.8 865.2C1723.5 874.1 1711.9 883.1 1699.7 890.7C1692.4 895.3 1685.8 897 1682.1 896C1680.4 895.3 1679.1 894.3 1678.5 892.7C1676.8 888.7 1678.2 882.1 1682.5 873.5C1693.8 851 1713 831.8 1731.2 813.2C1734.2 809.9 1737.5 806.9 1740.5 803.9C1762.7 781 1782.6 759.8 1799.5 736.3C1800.8 734.3 1802.5 731.7 1804.1 729C1810.1 719.1 1818.3 705.5 1827.9 705.1C1828.2 704.8 1828.2 704.8 1828.6 704.8C1832.2 704.8 1835.2 706.4 1837.5 709.4C1845.1 719.4 1843.8 741.9 1841.1 751.9Z" fill="white"/>
<path d="M1596.7 272.5C1603.3 275.8 1621.9 281.8 1635.5 281.8C1640.5 281.8 1644.1 281.1 1646.4 279.5C1651.7 276.2 1654 272.9 1653.4 269.9C1652.4 262.9 1637.2 258.6 1624.9 255.3C1619.9 254 1615.6 252.7 1613 251.7C1583.8 238.1 1555.4 222.5 1527.9 207.6L1524.9 205.9C1513 199.3 1501.4 192.7 1489.8 186.7V188.7C1501.1 194.7 1512.7 201 1524.2 207.3L1527.2 209C1554.7 224.2 1583.2 239.8 1612.3 253.1C1615 254.4 1619.3 255.4 1624.2 257.1C1635.5 260.1 1650.7 264.4 1651.4 270.4C1651.7 272.7 1649.7 275.7 1645.1 278.7C1643.1 280 1639.5 280.7 1635.2 280.7C1622.3 280.7 1603.7 274.7 1597.4 271.4C1580.8 262.8 1563.3 249.5 1546.1 236.6C1529.9 224.3 1511.3 210.1 1489.8 197.5V199.5C1510.7 212.1 1529.2 226 1545.1 238.3C1562.2 250.7 1579.8 264.3 1596.7 272.5Z" fill="white"/>
<path d="M1547 902.9C1551 817.1 1610.3 749.5 1657.6 694.9L1661.3 690.6C1717.9 626 1715.6 603.1 1689.1 577C1660 548.2 1614.2 505.1 1552 462.1C1530.8 447.5 1509.9 433.9 1489.7 422V424C1509.6 435.9 1530.1 449.2 1551 463.4C1612.9 506.5 1658.7 549.5 1687.8 578C1713.6 603.5 1715.6 625.4 1660 689.3L1656.4 693.6C1608.7 748.3 1549.4 816.2 1545.4 902.6C1541.4 983.8 1510.9 1007.6 1489.7 1014.2V1015.9C1511.5 1009.6 1543 985.4 1547 902.9Z" fill="white"/>
<path d="M1920 75.9V79.6C1913.2 88.8 1903.2 97.2 1889.2 105.3C1879.6 110.6 1869 114.9 1857.4 117.2C1847.5 119.5 1836.9 120.5 1825.3 120.5C1730.1 120.5 1603.2 48.8 1522.2 -2.44156e-05H1525.5C1606.3 48.4 1731.3 118.5 1825 118.5C1836.3 118.5 1847.2 117.5 1856.8 115.5C1868.1 113.2 1878.7 109.2 1887.9 103.9C1902.9 95.2 1913.3 86 1920 75.9Z" fill="white"/>
<path d="M1886.5 60.9C1879.6 72.8 1867.3 80.8 1850.4 84.4C1842.8 86 1834.5 86.7 1825.2 86.7C1755.5 86.7 1662.7 41.9 1588.7 -2.44156e-05H1590.1C1663.9 41.7 1755.8 86 1825.2 86C1834.1 86 1842.4 85.3 1850.1 83.7C1866.7 80.1 1878.6 72.1 1885.5 60.5C1894.9 44.1 1893.7 21.7 1888.9 -2.44156e-05H1890.1C1894.8 21.8 1896.1 44.2 1886.5 60.9Z" fill="white"/>
<path d="M1813.5 -2.44156e-05C1813 2.09998 1812.3 3.89998 1811.4 5.59998C1808.4 10.6 1803.8 13.5 1797.8 14.9C1795.5 15.2 1792.8 15.6 1789.9 15.6C1774.9 15.6 1755.3 8.29998 1738 0.0999756H1740.3C1757.1 7.79998 1775.7 14.6 1789.9 14.6C1792.5 14.6 1795.2 14.6 1797.5 13.9C1803.1 12.6 1807.8 9.89998 1810.4 5.29998C1811.3 3.79998 1812 1.99998 1812.4 0.0999756H1813.5V-2.44156e-05Z" fill="white"/>
<path d="M1836.5 -2.44156e-05C1835.7 21.7 1825.9 34.3 1807.4 37.3C1804.4 37.6 1801.1 38 1797.8 38C1763.7 38 1715.3 13.8 1689.5 0.899976C1688.7 0.599976 1688 0.299976 1687.3 -2.44156e-05H1690.3C1716.2 12.9 1764.1 37 1797.8 37C1801.1 37 1804.1 36.7 1807.1 36.3C1824.9 33.5 1834.5 21.3 1835.2 -2.44156e-05H1836.5Z" fill="white"/>
<path d="M1863.3 33C1855.7 46.6 1840.4 57.5 1824.5 61.2C1822.8 61.5 1821.2 61.5 1819.5 61.9C1815.5 62.2 1811.6 62.6 1807.2 62.6C1762.5 62.6 1710.1 37.1 1672 18.2L1665.7 15.2C1655.8 10.3 1645.9 5.19998 1636.2 -2.44156e-05H1637.2C1646.6 4.99998 1656.1 9.79998 1665.7 14.5L1672 17.5C1710.1 36.4 1762.4 61.9 1806.8 61.9C1811.1 61.9 1815.1 61.6 1819.1 61.2C1820.7 61.2 1822.4 60.9 1824.1 60.5C1840 56.9 1854.9 46.3 1862.2 32.7C1868.2 22 1867.6 11 1865 -2.44156e-05H1866.3C1868.9 11 1869.2 22.1 1863.3 33Z" fill="white"/>
<path d="M1852.1 683.6C1844.8 673.7 1834.9 670.4 1823.3 673C1808.7 676.6 1796.1 696.9 1785.9 712.8C1782.3 718.4 1778.9 723.7 1776 727.7C1759.4 748.9 1740.9 768.1 1723 786.7C1718.4 791.7 1712.4 797 1706.1 802.6C1687.5 819.8 1664.7 841 1657.7 860.6C1651.7 877.2 1655.4 892.7 1658.7 907.6C1661.4 919.9 1664.3 932.8 1662 946.4C1660.7 954.7 1655.7 963 1650.4 971.6C1644.1 981.9 1637.5 992.5 1637.1 1004.1C1637.1 1008.1 1637.4 1011.7 1638.8 1015.7C1643.1 1028 1647.7 1033.6 1653 1033.6C1658.3 1033.6 1664.3 1028 1672.9 1014.4C1681.2 1001.5 1684.5 986.2 1687.5 971.7C1690.8 957.1 1693.8 941.9 1702.4 928.6C1718.3 903.4 1746.5 885.2 1771 868.6C1773 867.3 1775.3 866 1777.3 864.6C1818.4 837.4 1850.8 815.9 1865.1 757.9C1869 742.6 1868 703.5 1852.1 683.6ZM1863.7 757.5C1849.5 814.8 1817.3 836 1776.6 863.2C1774.6 864.5 1772.6 865.9 1770.3 867.2C1745.5 883.4 1717.3 902 1701.1 927.5C1692.5 940.7 1689.2 956.3 1686.2 971.2C1683.2 985.8 1679.9 1000.7 1671.6 1013.6C1666 1022.9 1659 1032.1 1653 1032.1C1648.4 1032.1 1644.4 1026.5 1640.1 1015.2C1638.8 1011.6 1638.1 1008.2 1638.4 1004.3C1638.7 993.4 1645.4 982.8 1651.3 972.5C1656.6 963.9 1661.9 955.6 1663.2 947C1665.5 933.4 1662.5 920.5 1659.9 907.9C1656.6 892.3 1653.3 877.8 1658.9 861.5C1665.9 842.3 1688.7 821.1 1706.9 804.2C1713.2 798.6 1719.2 792.9 1723.8 788C1741.7 769.5 1760.2 750.2 1776.8 729C1779.8 725 1783.1 719.7 1786.7 714.1C1796.6 698.2 1809.2 678.3 1823.1 675C1825.8 674.3 1828.1 674 1830.4 674C1838.7 673.7 1845.3 677.3 1850.9 684.6C1865 702.5 1868 740.3 1863.7 757.5Z" fill="white"/>
<path d="M1880.6 675.7C1874.6 665.8 1867.4 659.8 1860.1 654.5C1853.8 649.5 1847.9 645.2 1843.2 637.9C1839.9 632.6 1840.5 626.6 1841.2 620.4C1841.9 613.8 1842.5 607.2 1838.5 601.2C1830.6 589.9 1823.6 588.3 1816.6 587C1811.6 586 1806.3 584.7 1800.4 580.4L1800.1 579.7C1783.2 560.8 1726.6 499.2 1707.3 499.2C1705 499.2 1703.3 499.9 1702 501.5C1699.3 504.8 1699.7 511.4 1702.3 522C1704 528.3 1720.2 536.9 1737.1 545.9C1751.3 553.5 1765.9 561.5 1770.9 567.1C1775.2 572.4 1781.2 579.7 1780.8 582.3C1780.8 583 1779.8 583.3 1778.5 584C1775.5 585.3 1771.2 587.6 1773.5 598.2C1775.2 605.5 1779.5 612.4 1784.1 619.4C1788.1 626 1792 632 1793.4 637.9C1797.7 654.1 1770.9 683.9 1753.3 703.8C1747.3 710.4 1742.4 716.1 1739.4 720.4C1726.5 737.6 1710.6 753.2 1695 768.4C1664.8 798.2 1633.7 829 1622.8 871.4C1605.6 935 1602.3 991 1612.2 1038C1614.3 1048 1618.5 1059.6 1623.9 1069.9H1626.7C1621.3 1059.9 1616.8 1048.2 1614.6 1037.3C1604.7 990.6 1608 934.9 1624.2 872C1635.1 830.3 1665.9 799.8 1695.8 770C1711.4 754.8 1727.6 738.9 1740.5 721.6C1743.5 717.3 1748.8 711.7 1754.4 705.4C1773.6 683.9 1799.4 654.7 1795.2 637.2C1793.5 630.9 1789.6 624.6 1785.6 618C1781.3 611.4 1777 604.1 1775.3 597.5C1773.3 588.9 1776.3 587.2 1779.3 585.9C1781 585.2 1782.3 584.3 1782.6 582.6C1783.3 580.3 1781.6 576.3 1772.3 565.4C1767 559.1 1752.1 551.2 1737.9 543.5C1723 535.5 1705.8 526.3 1704.4 521C1701.1 509.1 1702.1 504.4 1703.7 502.5C1704.4 501.5 1705.7 501.2 1707 501.2C1721.6 501.2 1763.7 542.3 1798.1 581C1798.4 581.3 1798.8 581.7 1798.8 581.7C1805.4 586.7 1811.1 587.7 1816 589C1822.9 590.6 1829.2 592 1836.5 602.6C1840.2 607.6 1839.5 613.9 1838.8 620.2C1838.1 626.8 1837.5 633.4 1841.1 639.1C1846.1 646.7 1852 651.3 1858.7 656.3C1865.7 661.6 1872.9 667.2 1878.6 676.8C1891.5 699 1901.8 739.1 1895.2 765.3C1877.6 834.9 1837.2 861.7 1794.2 890.2C1744.8 923 1693.8 956.8 1675.3 1058.5C1674.5 1062.8 1673.6 1066.7 1672.6 1070.2H1675.1C1676 1066.7 1676.8 1062.9 1677.6 1058.8C1696.2 958.1 1746.8 924.6 1795.5 892.2C1838.9 863.4 1880 836.2 1897.5 766C1904.1 739.3 1893.8 698.2 1880.6 675.7Z" fill="white"/>
<path d="M1489.7 386.2C1601.3 449.5 1721.9 549.8 1743.8 599.9C1757 630 1724.9 665.8 1684.5 711.2C1638.5 762.9 1581.5 827.1 1577.8 904C1573.5 998.1 1526.8 1036.5 1489.3 1048.1V1050.4C1527.4 1038.8 1575.4 999.7 1579.7 904C1583.3 827.8 1640 763.9 1685.7 712.5C1726.8 666.5 1758.9 630 1745.3 598.9C1723.8 548.9 1602.2 447.2 1489.6 383.9V386.2H1489.7Z" fill="white"/>
<path d="M1920 122.5V125.2C1915.6 128.3 1910.9 131.4 1905.7 134.4C1893.4 141.4 1879.2 146.6 1864.3 150C1852 152.7 1839.1 154 1825.2 154C1714.2 154 1576.1 72.2 1489.6 19.5V16.9C1576.1 69.6 1714.5 151.7 1825.5 152C1839.1 152 1852 150.7 1863.9 148C1878.8 144.7 1892.4 139.4 1904.6 132.4C1910.3 129.2 1915.4 125.9 1920 122.5Z" fill="white"/>
<path d="M1520.5 623.3C1518.8 612.7 1511.6 603.1 1498 594.1C1495.4 592.1 1492.4 590.5 1489.7 588.5V589.8C1492.4 591.5 1495 593.4 1497.6 595.1C1510.8 604 1518.1 613.3 1519.8 623.6C1522.4 640.8 1509.5 658.4 1493.3 678.3C1492.3 679.6 1491 681.3 1489.6 682.9V684.6C1491.3 682.3 1492.6 680.3 1493.9 678.6C1510.2 658.8 1523.4 640.9 1520.5 623.3Z" fill="white"/>
<path d="M1549.9 634.6C1558.5 610.4 1549.9 600.8 1510.8 575C1507.8 573 1504.5 571 1501.5 568.7C1497.5 566 1493.6 563.4 1489.6 560.7V562C1493.3 564.6 1496.9 567 1500.9 569.6C1504.2 571.6 1507.2 573.9 1510.2 575.9C1548.6 601.4 1557.2 611 1549 634.5C1541.4 655.7 1526.8 673.9 1511.2 693.1C1503.9 702 1496.6 711 1489.7 720.9V722.6C1497 712.3 1504.6 703.1 1511.9 693.8C1527.4 674 1542.3 656.1 1549.9 634.6Z" fill="white"/>
<path d="M1813.3 760.5C1813.3 759.8 1812.3 759.5 1811.3 759.5C1806.3 759.5 1801.7 765.5 1798.1 769.8C1797.4 770.8 1796.8 771.4 1796.1 772.1C1792.8 775.7 1789.8 779.7 1786.5 783.7C1784.5 786 1782.5 788.7 1780.5 791L1780.2 791.3C1773.6 799.3 1770.9 804.2 1771.9 806.9C1772.2 807.6 1772.9 808.6 1774.6 808.9C1774.9 808.9 1775.3 808.9 1775.3 808.9C1788.5 808.6 1799.2 796.7 1804.5 789.4C1809.5 782.4 1813.1 775.2 1814.1 769.2C1814.3 767.8 1815 762.8 1813.3 760.5ZM1813.3 769.1C1812 774.7 1808.7 782 1803.7 788.7C1798.7 795.6 1788.5 807.2 1775.9 807.6V807.9C1775.6 807.9 1775.6 807.9 1775.2 807.9C1773.9 807.9 1773.9 807.2 1773.9 807.2C1773.6 806.2 1773.6 803.2 1781.9 793.3L1782.2 793C1784.2 790.7 1786.2 788 1788.2 785.7C1791.2 782.1 1794.5 778.1 1797.8 774.1C1798.5 773.4 1799.1 772.4 1799.8 771.4C1802.8 767.4 1807.4 761.8 1811.7 761.8C1812.4 761.8 1813 762.1 1813.4 762.5C1814 763.1 1813.6 766.5 1813.3 769.1Z" fill="white"/>
<path d="M1884.9 1054.7C1863.1 1060.9 1842.1 1066.9 1824.5 1070H1835.1C1850.5 1066.7 1867.8 1061.7 1885.6 1056.6C1896.8 1053.4 1908.4 1050 1920.1 1046.9V1044.8C1908 1047.9 1896.2 1051.3 1884.9 1054.7ZM1872.6 905.2C1830.2 944.6 1782.2 989 1773.6 1026.8C1769.6 1044.4 1770.6 1056.6 1776.9 1064.6C1778.6 1066.8 1780.8 1068.6 1783.4 1070H1787.8C1783.6 1068.5 1780.3 1066.3 1777.8 1063.3C1771.8 1056 1771.2 1044.1 1774.8 1027.2C1783.1 990.1 1831.1 945.7 1873.2 906.6C1890.3 890.6 1907 875.1 1919.9 861.2V859.2C1907.1 873.4 1890.1 889.1 1872.6 905.2ZM1877.6 398.4C1892.6 391.2 1907.9 384.1 1920 373.4V371.5C1907.7 382.1 1892.2 389.4 1877.3 396.7C1852.8 408.3 1829.9 419.2 1820.3 443.4C1800.1 494.8 1849.8 535.2 1893.5 570.6C1902.8 578.1 1911.9 585.4 1920 592.6V590.7C1912 583.7 1903.2 576.6 1894.1 569.2C1850.7 534.1 1801.3 494.3 1821.2 444C1830.5 420.6 1853.4 409.7 1877.6 398.4Z" fill="white"/>
<path d="M1920 450.6V450.3C1909.8 459.7 1903.2 468.8 1903.4 479C1903.6 487.9 1909 497.2 1920 507.6V506.4C1909.2 496.3 1904 487.3 1903.7 478.7C1903.5 468.6 1910 459.8 1920 450.6Z" fill="white"/>
<path d="M1915 422.3C1916.6 421.3 1918.3 420.3 1920 419.2V418C1918.2 419.2 1916.4 420.2 1914.7 421.3C1900.8 429.9 1888.9 437.2 1875.9 456.7C1850.1 495.2 1883.8 518.9 1920 543.7V542.8C1884.3 518.4 1851.5 494.8 1876.6 457.3C1889.5 437.8 1901.4 430.5 1915 422.3ZM1909.4 927.5C1913 924.2 1916.5 920.9 1920 917.7V916.8C1916.4 920.1 1912.8 923.4 1909 926.8C1882.8 950.6 1856 975.5 1840.4 1003C1833.8 1014.9 1831.8 1022.9 1834.8 1027.5C1836.8 1030.8 1841.4 1032.5 1848.4 1032.5C1861 1032.5 1881.2 1027.2 1904.7 1021.2C1909.6 1019.9 1914.7 1018.6 1920 1017.2V1016.1C1914.6 1017.5 1909.4 1018.8 1904.4 1020.1C1881.2 1026.1 1861 1031.4 1848.4 1031.4C1841.8 1031.4 1837.5 1029.7 1835.5 1026.8C1832.8 1022.5 1834.8 1014.5 1841.1 1003.3C1856.4 975.8 1883.5 951.3 1909.4 927.5Z" fill="white"/>
<path d="M1920 966V964.8C1910.7 976.2 1904.9 984.3 1905.1 987C1905.1 987.3 1905.4 987.7 1905.4 988C1907.7 990 1912.3 991 1919.3 991C1919.5 991 1919.8 991 1920 991V990.3C1919.7 990.3 1919.3 990.3 1919 990.3C1912.4 990.3 1908.1 989.3 1905.8 987.3C1905.8 987.3 1905.8 987.3 1905.8 987C1905.6 984.6 1911.2 976.9 1920 966Z" fill="white"/>
<path d="M1892.2 847C1878.6 866.9 1850.5 889.7 1820.3 913.9C1769.6 955.3 1712.3 1002 1712 1045.4C1712 1054.4 1712.8 1062.6 1714.5 1070H1717.5C1715.8 1062.7 1715 1054.6 1715 1045.7C1715.3 1003.3 1772.3 956.9 1822.3 916.2C1852.1 891.7 1880.6 868.8 1894.5 848.6C1903.7 835.3 1912.6 821.7 1920 807.8V801.5C1912.1 817 1902.3 832.2 1892.2 847ZM1920 294.8V292.8C1915.3 295 1911.5 297.1 1909.7 299.1C1902.8 307.4 1904.7 312.3 1906.4 317.3C1907.7 320.6 1909.1 323.9 1907.4 328.9L1906.1 332.9C1896.2 362.4 1896.2 362.4 1873 369C1868.7 370.3 1863.1 372 1856.4 374C1837.2 380 1829.6 389.6 1821.9 398.5C1815.9 405.5 1810.6 412.1 1800.4 417.4H1799.4C1787.5 417.4 1697 423.4 1690.1 445.6C1688.1 451.6 1692.4 458.2 1702 464.8C1714.3 473.4 1723.9 474.4 1729.8 474.4C1732.8 474.4 1735.4 474.1 1737.7 473.7C1740 473.4 1742 473.4 1744 473.4C1751.3 473.4 1758.6 475.4 1768.8 500.2C1771.1 506.2 1773.1 511.5 1774.8 515.4C1782.8 535.9 1782.8 536.3 1802.6 544.6C1807.6 546.6 1813.5 549.2 1821.5 552.9C1847 564.8 1852.3 578.1 1858.9 595C1862.5 603.9 1866.5 614.2 1873.8 625.5C1881.8 637.7 1891.4 647.7 1900.3 657C1907.3 664.2 1914 671.3 1919.9 679.1V674.7C1914.6 668.1 1908.7 662 1902.7 655.7C1893.8 646.4 1884.1 636.5 1876.2 624.6C1868.9 613.3 1864.9 603.4 1861.3 594.5C1854.3 576.9 1849 563.4 1822.5 551.1C1814.5 547.5 1808.6 544.8 1803.6 542.8C1784.4 534.5 1784.4 534.5 1776.8 515C1775.1 510.7 1773.1 505.7 1770.8 499.8C1761.2 475.9 1753.6 471.3 1744 471.3C1742 471.3 1739.7 471.6 1737.7 471.6C1735 471.9 1732.7 471.9 1729.8 471.9C1723.5 471.9 1715.2 470.9 1703.3 462.6C1694.3 456.3 1690.7 450.7 1692 445.7C1698 426.5 1782.4 419.2 1799 419.2C1799.3 419.2 1799.7 419.2 1799.7 419.2L1800 418.2L1800.7 419.2C1811.6 413.6 1817.6 406.6 1823.6 399.7C1831.2 390.4 1838.5 381.8 1857.1 375.8C1863.7 373.8 1869.4 372.2 1873.7 370.8C1897.9 363.8 1898.2 363.5 1908.5 333L1909.8 329C1911.8 323.4 1910.1 319.4 1908.8 315.8C1907.1 311.2 1905.5 307.2 1911.8 300.2C1913.1 298.3 1916.2 296.5 1920 294.8Z" fill="white"/>
</g>
</svg>
