<svg width="20" height="20" viewBox="0 0 20 20" fill="none" xmlns="http://www.w3.org/2000/svg">
<g clip-path="url(#clip0_1_769)">
<path d="M0.229141 9.44711C0.229376 9.44687 0.22957 9.4466 0.229843 9.44636L4.31203 5.38387C4.61785 5.07953 5.1125 5.08067 5.41691 5.38653C5.72129 5.69235 5.72012 6.18699 5.4143 6.49137L2.67352 9.21886H19.2188C19.6502 9.21886 20 9.56863 20 10.0001C20 10.4316 19.6502 10.7814 19.2188 10.7814H2.67355L5.41426 13.5089C5.72008 13.8132 5.72125 14.3079 5.41687 14.6137C5.11246 14.9196 4.61777 14.9207 4.31199 14.6164L0.229805 10.5539C0.22957 10.5536 0.229374 10.5534 0.229101 10.5531C-0.0768757 10.2477 -0.0758991 9.75148 0.229141 9.44711Z" fill="black"/>
</g>
<defs>
<clipPath id="clip0_1_769">
<rect width="20" height="20" fill="white" transform="matrix(-1 0 0 1 20 0)"/>
</clipPath>
</defs>
</svg>
