<svg width="18" height="18" viewBox="0 0 18 18" fill="none" xmlns="http://www.w3.org/2000/svg">
<path d="M15.7499 18.0001H11.2501V11.2501H13.4324L14.0063 8.99995H11.2501V6.29995C11.2501 5.55441 11.8544 4.94994 12.6001 4.94994H13.9501V2.7H12.6001C10.6131 2.70313 9.00308 4.31301 8.99995 6.29995V8.99995H6.75V11.2501H8.99995V18.0001H2.24995C1.00739 18.0001 0 16.9927 0 15.7499V2.24995C0 1.00739 1.00739 0 2.24995 0H15.7499C16.9927 0 18.0001 1.00739 18.0001 2.24995V15.7499C18.0001 16.9927 16.9927 18.0001 15.7499 18.0001ZM12.15 17.0999H15.7499C16.4956 17.0999 17.0999 16.4956 17.0999 15.7499V2.24995C17.0999 1.50441 16.4956 0.899945 15.7499 0.899945H2.24995C1.50441 0.899945 0.899945 1.50441 0.899945 2.24995V15.7499C0.899945 16.4956 1.50441 17.0999 2.24995 17.0999H8.1V12.15H5.85006V8.1H8.1V6.29995C8.10313 3.81599 10.1159 1.80302 12.6001 1.80005H14.85V5.85006H12.6001C12.3515 5.85006 12.15 6.05143 12.15 6.29995V8.1H15.1649L14.13 12.15H12.15V17.0999Z" fill="#FBF5EF"/>
</svg>
