<svg width="18" height="18" viewBox="0 0 18 18" fill="none" xmlns="http://www.w3.org/2000/svg">
<path d="M13.5 0H4.5C2.02522 0 0 2.02517 0 4.49989V13.5001C0 15.9742 2.02522 18 4.5 18H13.5C15.9748 18 18 15.9742 18 13.5001V4.49989C18 2.02517 15.9748 0 13.5 0ZM16.4999 13.5001C16.4999 15.1538 15.1547 16.5 13.5 16.5H4.5C2.84603 16.5 1.50007 15.1538 1.50007 13.5001V4.49989C1.50007 2.84574 2.84603 1.50004 4.5 1.50004H13.5C15.1547 1.50004 16.4999 2.84574 16.4999 4.49989V13.5001Z" fill="#FBF5EF"/>
<path d="M13.8757 5.25001C14.4971 5.25001 15.0007 4.74634 15.0007 4.12503C15.0007 3.50373 14.4971 3.00006 13.8757 3.00006C13.2544 3.00006 12.7507 3.50373 12.7507 4.12503C12.7507 4.74634 13.2544 5.25001 13.8757 5.25001Z" fill="#FBF5EF"/>
<path d="M9 4.49966C6.51419 4.49966 4.5 6.51402 4.5 8.99956C4.5 11.4842 6.51419 13.4999 9 13.4999C11.4851 13.4999 13.5 11.4842 13.5 8.99956C13.5 6.51402 11.4851 4.49966 9 4.49966ZM9 11.9998C7.34331 11.9998 6.00007 10.6566 6.00007 8.99956C6.00007 7.34246 7.34331 5.9997 9 5.9997C10.6567 5.9997 11.9999 7.34246 11.9999 8.99956C11.9999 10.6566 10.6567 11.9998 9 11.9998Z" fill="#FBF5EF"/>
</svg>
