<svg width="97" height="17" viewBox="0 0 97 17" fill="none" xmlns="http://www.w3.org/2000/svg">
<path d="M13.2125 16.9205L8.5 13.8419L3.78751 16.9205C3.61631 17.0338 3.39548 17.0251 3.23063 16.9002C3.06624 16.7758 2.99083 16.5595 3.04044 16.3538L4.38865 10.723L0.178095 6.99597C0.0224389 6.85987 -0.0383561 6.63847 0.0243979 6.4369C0.0871518 6.2348 0.261269 6.09313 0.463609 6.0784L5.95919 5.67775L8.03794 0.294769C8.19068 -0.0982565 8.80932 -0.0982565 8.96205 0.294769L11.0408 5.67775L16.5364 6.0784C16.7387 6.09313 16.9128 6.2348 16.9756 6.4369C17.0384 6.63847 16.9776 6.85987 16.8219 6.99597L12.6113 10.7231L13.9595 16.3539C14.0091 16.5595 13.9338 16.7759 13.7693 16.9003C13.6011 17.0278 13.3809 17.0307 13.2125 16.9205Z" fill="#BEA183"/>
<path d="M33.2125 16.9205L28.5 13.8419L23.7875 16.9205C23.6163 17.0338 23.3955 17.0251 23.2306 16.9002C23.0662 16.7758 22.9908 16.5595 23.0404 16.3538L24.3887 10.723L20.1781 6.99597C20.0224 6.85987 19.9616 6.63847 20.0244 6.4369C20.0872 6.2348 20.2613 6.09313 20.4636 6.0784L25.9592 5.67775L28.0379 0.294769C28.1907 -0.0982565 28.8093 -0.0982565 28.9621 0.294769L31.0408 5.67775L36.5364 6.0784C36.7387 6.09313 36.9128 6.2348 36.9756 6.4369C37.0384 6.63847 36.9776 6.85987 36.8219 6.99597L32.6113 10.7231L33.9595 16.3539C34.0091 16.5595 33.9338 16.7759 33.7693 16.9003C33.6011 17.0278 33.3809 17.0307 33.2125 16.9205Z" fill="#BEA183"/>
<path d="M53.2125 16.9205L48.5 13.8419L43.7875 16.9205C43.6163 17.0338 43.3955 17.0251 43.2306 16.9002C43.0662 16.7758 42.9908 16.5595 43.0404 16.3538L44.3887 10.723L40.1781 6.99597C40.0224 6.85987 39.9616 6.63847 40.0244 6.4369C40.0872 6.2348 40.2613 6.09313 40.4636 6.0784L45.9592 5.67775L48.0379 0.294769C48.1907 -0.0982565 48.8093 -0.0982565 48.9621 0.294769L51.0408 5.67775L56.5364 6.0784C56.7387 6.09313 56.9128 6.2348 56.9756 6.4369C57.0384 6.63847 56.9776 6.85987 56.8219 6.99597L52.6113 10.7231L53.9595 16.3539C54.0091 16.5595 53.9338 16.7759 53.7693 16.9003C53.6011 17.0278 53.3809 17.0307 53.2125 16.9205Z" fill="#BEA183"/>
<path d="M73.2125 16.9205L68.5 13.8419L63.7875 16.9205C63.6163 17.0338 63.3955 17.0251 63.2306 16.9002C63.0662 16.7758 62.9908 16.5595 63.0404 16.3538L64.3887 10.723L60.1781 6.99597C60.0224 6.85987 59.9616 6.63847 60.0244 6.4369C60.0872 6.2348 60.2613 6.09313 60.4636 6.0784L65.9592 5.67775L68.0379 0.294769C68.1907 -0.0982565 68.8093 -0.0982565 68.9621 0.294769L71.0408 5.67775L76.5364 6.0784C76.7387 6.09313 76.9128 6.2348 76.9756 6.4369C77.0384 6.63847 76.9776 6.85987 76.8219 6.99597L72.6113 10.7231L73.9595 16.3539C74.0091 16.5595 73.9338 16.7759 73.7693 16.9003C73.6011 17.0278 73.3809 17.0307 73.2125 16.9205Z" fill="#BEA183"/>
<path d="M93.2125 16.9205L88.5 13.8419L83.7875 16.9205C83.6163 17.0338 83.3955 17.0251 83.2306 16.9002C83.0662 16.7758 82.9908 16.5595 83.0404 16.3538L84.3887 10.723L80.1781 6.99597C80.0224 6.85987 79.9616 6.63847 80.0244 6.4369C80.0872 6.2348 80.2613 6.09313 80.4636 6.0784L85.9592 5.67775L88.0379 0.294769C88.1907 -0.0982565 88.8093 -0.0982565 88.9621 0.294769L91.0408 5.67775L96.5364 6.0784C96.7387 6.09313 96.9128 6.2348 96.9756 6.4369C97.0384 6.63847 96.9776 6.85987 96.8219 6.99597L92.6113 10.7231L93.9595 16.3539C94.0091 16.5595 93.9338 16.7759 93.7693 16.9003C93.6011 17.0278 93.3809 17.0307 93.2125 16.9205Z" fill="#BEA183"/>
</svg>
